<svg width="145" height="105" fill="none" xmlns="http://www.w3.org/2000/svg"><path d="M78.343 15.972h54.974v38.213H69.525V24.797a8.837 8.837 0 0 1 2.585-6.24 8.817 8.817 0 0 1 6.233-2.585Z" fill="#CCD9FF"/><path d="M76.17 17.79h55.255v34.747h-60.36V22.904a5.116 5.116 0 0 1 3.151-4.724 5.101 5.101 0 0 1 1.954-.39Z" fill="#9DB0F4"/><path d="M144.403 54.187H69.195v44.696h75.208V54.187Z" fill="#CCD9FF"/><path d="M142.173 56.313H71.012v40.64h71.161v-40.64ZM86.201 105h-2.383l.486-6.117h3.32L86.2 105ZM128.163 105h2.382l-.484-6.117h-3.321l1.423 6.117Z" fill="#829CE8"/><path d="M125.801 71.116c.727.374 1.928.712 2.353 1.67.151.34.07 1.533-.44 1.462-.28-.038-.36-.415-.377-.746a.88.88 0 0 0-.515-.759l-3.32-1.456.625-1.285s1.355.95 1.674 1.114Z" fill="#ED7D2B"/><path d="M92.913 93.882h20.088c0 .24 3.614 0 3.614 0s-.254-1.238-.857-1.586c-.136-.079-1.14.161-1.386.15.105-.064 2.231-.72 1.754-3.98l1.135 5.249a.197.197 0 0 0 .196.167h4.447a.2.2 0 0 0 .196-.163c.067-.353.18-1.195-.173-1.622-.277-.338-1.147-.262-1.779-.152-.142.025-.27.05-.381.074a.198.198 0 0 1-.236-.145.204.204 0 0 1 .001-.102s.331-.972.933-2.323c.602-1.351 1.475-3.081 2.561-4.596.218-.304.444-.6.678-.882.84-1.012 1.409-3.444.673-4.517-.096-.14-.529-.605-.374-.54.285.131.53.336.711.593a.2.2 0 0 0 .36-.112c.09-2.536-1.825-4.703-2.576-5.81-.244-.36-.365-.606-.254-.72.483-.48 2.611.737 3.578.703a2.554 2.554 0 0 0 1.26-.382.199.199 0 0 0 .064-.066.183.183 0 0 0 .026-.088.199.199 0 0 0-.106-.192c-.554-.288-1.39-.641-2.051-1.118-.332-.24-.63-.661-.804-1.028a1.273 1.273 0 0 1-.09-.62 8.33 8.33 0 0 0 2.574 1.453c.561.192 1.059.277 1.38.22.828-.15 1.35-.91 1.644-1.533.102-.215.19-.438.261-.667a.2.2 0 0 0-.109-.24c-.135-.06-.348-.157-.609-.278-1.214-.558-2.56-1.001-2.8-1.388a4.477 4.477 0 0 1-.234-.436c-.36-.751-.71-1.743-1.719-2.543a7 7 0 0 0-3.829-1.523 3.225 3.225 0 0 0-.323-.008c-1.038-.041-1.81.112-2.384.411-2.226 1.16-1.502 4.491-1.969 7.036-.018.099-.038.197-.06.293-.192.841-2.645 3.122-2.742 4.507-.186 2.644-2.161 2.89-6.531 5.567-2.527 1.547-2.707 5.739-2.479 8.927a1.533 1.533 0 0 1-1.278 1.622c-1.062.18-2.244.25-3.33.048-2.99-.557-3.616-5.638-1.808-6.4 0 0-3.068-.9-4.558 1.462-1.49 2.362-1.487 6.129-.305 7.278Z" fill="#F1A34F"/><path d="M119.951 63.87c.881 0 1.631.671 1.772 1.586.212 1.385.424 3.384.156 4.76-.398 2.05-2.16 2.801-3.299 2.194-2.095-1.123-1.138-5.463-.555-7.488a1.419 1.419 0 0 1 1.35-1.051h.576Z" fill="#ED7D2B"/><path d="M129.727 70.22c.102-.216.189-.439.261-.667a.2.2 0 0 0-.109-.24l-.61-.278c0 .002-.171.973.458 1.185Z" fill="#BC6211"/><path d="M92.913 93.882h3.534c-4.034-.83-3.192-3.925-3.192-3.925.417.765 2.746.901 2.746.901s-1.565-1.461-1.425-3.618c.112-1.754 2.16-2.04 2.917-2.085.18-.01.283-.008.283-.008s-3.068-.901-4.558 1.461c-1.49 2.362-1.487 6.125-.305 7.274Z" fill="#FFDABB"/><path d="M117.979 63.547s-1.966.52-2.383 2.085a2.02 2.02 0 0 1 .45-.33s-.506.432-.45 1.531c.057 1.1.679 2.846.354 4.044l1.236-2.15.793-5.18ZM126.234 67.212s-.567-1.431 0-1.965c0 0-.394-.116-.591 0 0 0-.069-1.09-1.46-1.577-1.391-.486-3.497-.526-3.497-.526l3.636 2.703 1.912 1.365Z" fill="#F1A34F"/><path d="M119.289 93.882h2.611a.2.2 0 0 0 .196-.163c.067-.353.18-1.195-.174-1.622-.276-.338-1.147-.262-1.779-.152-.659.72-.854 1.937-.854 1.937Z" fill="#FFDABB"/><path d="M85.627 96.955s.133-2.387 2.663-3.853c2.53-1.467 11.651 1.333 17.51.466 5.858-.867 25.616-3.245 24.618 3.387H85.627Z" fill="#E85D52"/><path d="M107.519 55.413h-.566v41.541h.566v-41.54ZM119.402 55.413h-.566v41.541h.566v-41.54ZM131.287 55.413h-.566v41.541h.566v-41.54ZM95.635 55.413h-.567v41.541h.567v-41.54ZM83.75 55.413h-.566v41.541h.566v-41.54Z" fill="#C5DDFF"/><path d="M90.078 52.537s3.05-3.515 9.89-3.825c6.839-.311 6.647 2.304 11.398 1.42 4.751-.882 8.868-1.982 12.243-.782 3.375 1.201 5.034 3.187 5.034 3.187H90.078Z" fill="#FF685B"/><path d="M90.316 40.15s.88 4.776 5.349 7.137c0 0 .815.197.998.63.183.434 1.203 3.558 1.752 3.551.99-.01.63-1.738.396-2.648-.165-.64-.217-2.343-.42-2.588-.202-.245-1.35-2.113-.874-3.225.476-1.11.597-3.797-2.15-4.762-2.746-.964-5.05 1.905-5.05 1.905Z" fill="#F2CCAA"/><path d="M98.003 49.647s-1.426.429-1.446.93c-.005.316.07.63.217.91l1.78-.02-.551-1.82Z" fill="#F2CCAA"/><path d="M36.512 95.757s-1.73 1.605-1.392 2.746c.337 1.14 1.9 1.901 2.11 3.295.21 1.394 1.055 2.154 1.815 2.154h3.62s.56-.981-.791-1.276c-1.35-.296-1.862-1.936-1.772-3.458.09-1.52-.126-3.548-.126-3.548l-2.87-.676-.594.763ZM57.737 99.917s-.403 3.654.36 4.033h9.797s.017-1.161-1.544-1.414c-1.561-.253-4.304-1.183-4.771-3.253-.468-2.07-3.842.634-3.842.634Z" fill="#423B7D"/><path d="M65.944 48.31s-.513 6.404-1.115 14.101c-.82 10.455-1.8 23.302-1.902 25.736-.168 4.225-.844 10.984-.844 10.984s-1.602 1.605-4.81.928c0 0-2.859-9.643-3.675-19.856l-.038-.505c-.76-10.392-1.94-32.275-1.94-32.275l14.324.886Z" fill="#746DAE"/><path d="M65.944 48.31s-.513 6.404-1.115 14.101L53.598 80.203l-.038-.505c-.76-10.392-1.94-32.275-1.94-32.275l14.324.886Z" fill="#423B7D"/><path d="M63.603 49.072s-9.24 23.19-15.317 34.09c-6.076 10.898-7.974 13.941-7.974 13.941s-3.481-1.394-3.798-2.343c0 0 2.323-21.042 6.391-26.17 2.3-2.899 5-11.597 5.131-14.639.132-3.041.823-9.06.823-9.06l14.744 4.18Z" fill="#746DAE"/><path d="M89.813 38.146s2.57-.055 2.978.06c.408.114 1.728 1.017 1.723 1.138-.004.12-.09.203-.346.167-.257-.035-1.054-.31-1.022-.199.031.111 2.303 1.066 2.23 1.548-.072.482-1.551 1.101-2.66.934-1.108-.166-3-1.887-3.182-1.942-1.538-.46.28-1.706.28-1.706Z" fill="#FFB27D"/><path d="M90.735 38.988c.583-1.05.54-1.247.54-1.247s-8.84-7.442-9.64-8.177c-.798-.734-8.821-13.815-8.821-13.815l-11.132.726s13.737 15.8 15.797 17.62c3.404 3.01 12.086 6.109 12.086 6.109a3.34 3.34 0 0 0 1.17-1.216Z" fill="#CD584D"/><path d="M67.674 12.559s3.77 6.641 7.456 7.508c0 0-.112-1.631-.706-3.059a1.353 1.353 0 0 1 .207-1.363c.149-.18.288-.36.417-.524a22.33 22.33 0 0 0 1.37-1.919l-1.252-3.366-.848-2.285a10.994 10.994 0 0 1-1.326 1.914c-2.416 2.78-5.318 3.094-5.318 3.094Z" fill="#FFB27D"/><path d="M72.992 9.465s-.45 3.328 2.056 5.656c.49-.615.947-1.255 1.37-1.919l-1.252-3.366c-1.34-.41-2.174-.371-2.174-.371Z" fill="#ED975D"/><path d="M77.41 13.693s-5.633-2.199-4.211-5.69c1.421-3.492 1.652-6.129 5.31-4.867 3.66 1.262 3.81 2.872 3.618 4.153-.192 1.28-3.215 6.886-4.716 6.404Z" fill="#FFB27D"/><path d="M48.31 46.639c2.272 3.271 19.264 7.641 19.061 5.377a24.717 24.717 0 0 1 0-4.466c.042-.485.102-1 .18-1.543.431-2.974 1.457-6.8 3.744-11.229.171-.331.35-.666.535-1.004a34.642 34.642 0 0 0 2.356-5.3c1.177-3.405 1.651-6.669 1.057-8.794 0-.01-.554-2.254-.558-2.26-3.552-1.645-4.378-5.791-4.378-5.791s-12.11 2.18-18.902 18.35c0 0-5.074 13.815-3.096 16.66Z" fill="#FF685B"/><path d="M67.374 47.553c.042-.485.102-1 .18-1.543.43-2.975 1.456-6.8 3.744-11.23-.393-2.382-.936-4.364-1.53-5.255-2.417-3.626-3.825-4.193-3.825-4.193s-3.623 15.302 1.43 22.22Z" fill="#CD584D"/><path d="M72.391 1.518c-.04-.079-.155-.162-.434-.247a1.17 1.17 0 0 1 .568-.022c.157-.386.54-1.044 1.26-1.049a.889.889 0 0 0-.566.523c.99-.631 2.82-.811 7.393.715 6.026 2.01 3.015 5.512 2.102 5.793-.913.28-2.595-1.522-4.108-1.768-1.512-.246-2.33 1.863-2.906 2.038-.578.175-.249-.305-.853-.785-.604-.48-.95.65-.937 1.442.013.792-1.164 1.547-1.164 1.547L72.06 8.44c-.69-1.268-.502-5.87.156-6.7l.174-.221Z" fill="#746DAE"/><path d="M77.219 11.265s.016.566.216.75c.2.182.949.5 1.131.45.183-.05.567-.35.567-.35s-1.116-.75-1.914-.85Z" fill="#fff"/><path d="M81.83 30.65s-4.87 1.422-7.87.33c0 0-1.111-1.72-1.72-1.311-.61.41-.37 1.826.782 2.576 1.152.75 7.447 2.53 7.858 2.365.41-.166.95-3.96.95-3.96Z" fill="#F2CCAA"/><path d="M80.53 26.075s.98 1.692.655 3.341c-.27 1.373-1.626 3.645-.91 5.472.715 1.827 6.515 3.279 7.988 4.901 1.472 1.622 7.623 4.47 8.696 2.465 1.24-2.317 1.676-5.628-3.268-7.972-4.059-1.926-9.548-9.528-9.548-9.528l-3.614 1.32Z" fill="#F9DDBF"/><path d="M86.38 22.713s-1.628-1.064-2.924-.715c-1.295.35-2.959-1.662-3.763-.961-.805.7-1.686 2.631.197 4.511 1.883 1.88 3.455 2.944 4.813 2.344 1.359-.6 3.201-4.506 1.677-5.179ZM84.313 32.48s-6.495 3.996-7.149 4.087c-.654.091-1.509-.846-2.07-.078-.562.768 1.232 1.902 1.91 2.174.678.27 7.9-1.66 7.9-1.66l-.591-4.522ZM90.109 39.058s-.379 4.846 3.33 8.275c0 0 .738.4.802.87.065.469-.02 3.199 1.038 3.277.99.073.799-.913.81-1.852.006-.661.391-2.316.26-2.613-.132-.298-.766-2.391-.016-3.342.75-.951 1.552-3.515-.854-5.155-2.406-1.64-5.37.54-5.37.54ZM95.58 35.404s4.231 3.32 6.365 3.17c2.625-.18 2.732-2.389 2.732-2.389a2.952 2.952 0 0 1 .575 2.81c-.604 1.974-4.917 4.381-8.116.787l-1.556-4.378Z" fill="#F9DDBF"/><path d="M81.254 28.749s2.654.972 5.911-.445c0 0 .885.767.81 1.13 0 0-3.761 1.728-6.922.507-.002 0-.62-.661.2-1.192Z" fill="#35488B"/><path d="M85.013 24.107s-1.933 5.474.443 7.703c2.375 2.23 3.117-1.663 2.61-3.223-.507-1.56-1.513-5.976-3.053-4.48Z" fill="#D39E7A"/><path d="M86.746 38.188s3.304-.593 3.853-.53c.55.065 2.43.961 2.452 1.118.022.157-.078.28-.412.288-.334.007-1.421-.187-1.358-.05.063.135 3.186.906 3.19 1.542.005.636-1.777 1.736-3.24 1.746-1.463.01-4.251-1.824-4.5-1.858-2.075-.28.015-2.256.015-2.256Z" fill="#FFB27D"/><path d="M87.365 39.535c.065-.653-.62-1.347-.62-1.347s-9.806-2.704-10.622-3.522c-.816-.817-4.571-13.879-4.571-13.879s-1.295-5.284-4.321-5.867c-2.633-.506-4.453.798-5.644 2.327a5.628 5.628 0 0 0-.381 6.323c2.644 4.46 7.977 13.313 9.535 14.826 3.466 3.367 15.99 2.673 15.99 2.673s.505-.223.634-1.534Z" fill="#F99746"/><path d="M94.852 49.654s-1.43.413-1.455.913c-.01.317.062.631.207.913h1.78l-.532-1.826Z" fill="#F9DDBF"/><path d="M2.257 96.706S.585 98.238.911 99.32c.326 1.081 1.836 1.809 2.04 3.136.203 1.327 1.02 2.05 1.754 2.05h3.5s.54-.933-.765-1.214c-1.306-.282-1.8-1.841-1.716-3.288.084-1.448-.123-3.378-.123-3.378l-2.771-.644-.573.724ZM16.41 97.51s-.602 6.472.132 6.834l9.396-.02s0-1.081-1.51-1.326c-1.508-.245-4.16-1.126-4.608-3.096-.449-1.97-3.41-2.393-3.41-2.393Z" fill="#423B7D"/><path d="M24.081 44.234s2.71 8.442 2.881 11.316c.172 2.873-5.177 40.826-5.393 42.151-.203 1.248-1.75 2.044-1.75 2.044s-.713.42-1.73.133c-1.409-.399-1.854-.876-1.854-.876s-2.107-27.068-.803-36.734c1.303-9.666 1.32-18.03 1.32-18.03l7.33-.004Z" fill="#CD584D"/><path d="M12.606 43.985s-4.132 5.55-4.517 9.303c-.385 3.752-.604 16.931-1.424 20.589-.82 3.657-3.835 10.697-3.835 22.106 0 0 .314.653 1.282 1.002.37.124.745.228 1.126.311a1.77 1.77 0 0 0 1.98-.941c2.039-4.11 8.533-17.362 8.865-20.114.236-1.946 2.286-14.831 6.759-22.392 1.073-1.815-.66-9.033-.66-9.033l-9.576-.831Z" fill="#FF685B"/><path d="M11.996 3.817c-.099-.24-1.26-2.794-5.19-1.402 0 0 1.997-.52 2.647.216 0 0-1.696-.556-2.626.205-.931.762-.843 2.926-.616 3.557.227.63 1.568 2.429 2.303 2.336.29-.05.565-.16.81-.321a10.42 10.42 0 0 0-.164 1.166c-.332 3.893 2.455 6.467 3.634 5.596.757-.56 1.544.827 1.544.827L19.98 5.942S14.603.72 11.996 3.817Z" fill="#2C3A64"/><path d="M22.575 27.49c-5.343 2.463-9.355-6.227-9.007-6.317.534-.623 1.085-2.843.694-6.038l.276.02 4.645.355s.072 1.486.232 2.872c.106.912.252 1.78.44 2.163.056.112 1.062.262 1.064.264.078.083 3.08 6.025 1.655 6.682Z" fill="#FFB27D"/><path d="M26.36 30.192c.346 1.307.63 2.477.769 3.266.643 3.635.32 22.119.32 22.119-9.423 3.597-20.704-1.034-20.704-1.034-.35-3.447.99-11.11 1.805-17.935.2-1.671.368-3.29.472-4.786.077-1.17.221-2.335.43-3.49 1.35-7.288 4.838-8.089 4.838-8.089 1.629 3.264 6.769 4.146 6.769 4.146.063-1.837-.513-4.177-.513-4.177.65.08 2.845.36 3.438.654 1.76.878 5.932 8.244 5.932 8.244s1.078-.49-3.556 1.082Z" fill="#F9DDBF"/><path d="M19.184 15.507s.071 1.486.232 2.873c-2.546.247-4.17-1.973-4.877-3.227l4.645.354Z" fill="#ED985F"/><path d="M20.188 16.714s-5.992.86-6.454-2.999c-.462-3.858-1.542-6.346 2.261-7.057 3.804-.711 4.727.665 5.185 1.914.457 1.249.554 7.82-.992 8.142Z" fill="#FFB27D"/><path d="M20.742 6.45c-1.065-1.044-1.736-.702-2.088-.302-3.502-1.449-5.29 1.57-5.29 1.57-.074 2.82-1.821 4.65-1.821 4.65s1.177.56 3.62-.428c.747-.302 1.367-.954 1.871-1.713a14.619 14.619 0 0 1-2.05 3.342c2.842-1.818 3.54-6.294 3.607-6.766.406.293 1.217.94 1.522 1.635.416.944.79 2.95 1.35 2.81.006 0 .88-3.233-.72-4.799Z" fill="#2C3A64"/><path d="M14.261 19.1s-.703.596-.704 1.48c0 0 1.096 3.091 7.498 3.809.003.002-6.115-2.989-6.793-5.289ZM19.701 20.362s1.401 2.537 1.356 4.029c0 0 .11-3.39-.12-4.177-.23-.787-1.474-1.448-1.474-1.448l.238 1.596Z" fill="#EAC3A2"/><path d="M18.3 14.69c.056 0 .568.47 1.245.34.677-.132.67-.68.67-.68a2.934 2.934 0 0 0-.868 0c-.357.085-.707.199-1.046.34Z" fill="#fff"/><path d="M31.742 28.189s1.011-1.73.474-3.227a10.582 10.582 0 0 0-.785-1.637c-.314-.547-.493-.422-.742.158-.193.45-.617.942-.705 1.267-.27 1.01-.562 1.69.14 2.614.704.924 1.618.825 1.618.825Z" fill="#746DAE"/><path d="M33.732 43.593s4.024-4.166-.693-7.931c-1.153-.921-5.023-4.808-2.686-5.566 1.19-.386 1.76-1.182 2.035-1.87.04-.096.072-.19.1-.28a3.34 3.34 0 0 0 .155-.946s.117-.867-1.085-1.81a6.567 6.567 0 0 0-1.321-.777 8.295 8.295 0 0 0-.382-.163c-1.312-.528-1.748-.02-2.303-.334a52.369 52.369 0 0 1-1.246-.74l-.016-.01s-.637-.584-.942.108l-.09.212c-.21.485-.315.785-.227 1.06.067.209.52.642.89.895.287.196.982.62 1.015.653.09.09-.566.074-2.07-.777l-.084-.045a.16.16 0 0 0-.211.05.652.652 0 0 0-.057.642c.193.47 1.552 1.2 1.152 1.468a.778.778 0 0 1-.34.103c-.514.06-1.314-.06-1.8.37 0 0 .599.064.92.311 0 0-1.35-.252-1.704.309a.72.72 0 0 1 .48.115s-1.423.383-2.07 1.754c-.058.123-.108.25-.15.38-.47 1.48-.239.631 1.17 3.623.79 1.672 4.963 6.116 7.392 6.724 3.007.748 4.168 2.472 4.168 2.472Z" fill="#746DAE"/><path d="M25.81 25.538s-.957-.429-1.068-.18c-.112.249 2.573 1.262 2.636 1.094.062-.168-1.227-.763-1.568-.914Z" fill="#E57970"/><path d="M31.527 27.381s1.312-.032 1.687-1.5c.145-.565-.11-1.224-.226-1.803-.126-.618-.335-.556-.755-.084-.326.367-.882.697-1.07.979-.576.871.364 2.408.364 2.408ZM25.172 30.022s-4.372-.381-5.437-1.532c0 0 .052-.935-.127-1.262-.18-.327-.946-.56-1.338-.356-.392.204.483 2.17.679 2.364.195.194 3.356 5.513 4.958 6.208.665.289-.081-2.22.654-2.764.734-.543.61-2.658.61-2.658Z" fill="#746DAE"/><path d="M27.884 28.272s-4.345-.617-5.347-1.826c0 0 .103-.931-.058-1.262-.161-.33-.915-.61-1.317-.428-.403.182.366 2.193.55 2.397.183.205 3.055 5.685 4.617 6.467.649.324.039-2.221.801-2.725.763-.504.754-2.623.754-2.623Z" fill="#746DAE"/><path d="M26.302 23.171c-.208.18-.64.484-1.05.31l.09-.212c.305-.692.943-.107.943-.107l.017.01Z" fill="#1D3972"/><path d="M33.617 39.373s1.319.024 2.303-.3c1.203-.394 1.699-2.1-.926-3.413 0 0 1.113-.643 2.415.4.058-.22.053-.452-.014-.67 0 0 1.826.968 1.543 2.658 0 0 .783-.603.866-1.081 0 0 1.343 1.813-.25 3.33.355.01.7-.115.966-.352 0 0-1.899 3.244-6.433 1.115l-.47-1.687Z" fill="#746DAE"/><path d="M31.307 25.214c.125-.159.275-.296.445-.405.333-.236.63-.782.69-.733.06.05-.052 1.72-.689 1.87 0 .004-.434-.086-.446-.732Z" fill="#223D75"/><path d="M25.57 42.803c1.02-.383 5.602 1.893 7.652.689 1.072-.631 1.502-2.714 1.669-4.556.174-1.935-1.79-3.359-3.57-2.584a8.464 8.464 0 0 0-2.941 2.173c-1.517 1.702-2.957 2.003-4.058 2.015-.29-.27-.694-.54-1.122-.519-.825.039-.943.818-.943.818-.356 1.126 2.294 2.35 3.313 1.964Z" fill="#746DAE"/><path d="M13.136 27.636c-1.898-.847-3.246.901-2.892 2.953.984 5.692 3.322 13.86 5.236 14.442 2.881.874 13.22-5.756 13.22-5.756l-1.441-1.723s-8.593 2.628-8.75 2.22c-.156-.409-3.303-11.209-3.303-11.209l-2.07-.927Z" fill="#FFB27D"/><path d="M13.99 23.28s-2.546.97-3.434 2.301c-.889 1.33-.998 5.577.378 11.097 0 0 5.254-1.665 7.966-4.492.001 0-2.112-9.705-4.91-8.907Z" fill="#F9DDBF"/><path d="M27.254 37.551c.215-.4.382-.823.499-1.261.163-.662.669-1.442.707-2.052.039-.61.408-.206.54.18.133.386-.155 1.596.116 1.421.272-.175.9-1.679 1.018-2.125.136-.515 1.604.422 1.616 1.517.011 1.095-.786 2.36-1.194 2.69-.408.333-1.864 1.353-1.864 1.353l-1.438-1.723ZM34.176 41.826a5.796 5.796 0 0 1-1.322-.312c-.636-.243-1.561-.27-2.088-.588-.526-.318-.401.218-.16.552.243.335 1.399.783 1.1.907-.299.124-1.583-.1-2.032-.387-.923-.59-.623 1.63.03 2.205.536.468 2.386.7 2.89.553.506-.147 2.174-.761 2.174-.761l-.592-2.169Z" fill="#FFB27D"/><path d="m34.176 41.826.768-.174s1.193 1.152-.18 2.343l-.588-2.169Z" fill="#FFB27D"/></svg>