<svg width="168" height="111" fill="none" xmlns="http://www.w3.org/2000/svg"><path d="M46.325 52.522a.498.498 0 0 1-.453-.289l-1.68-3.611h-5.575a.5.5 0 0 1 0-1h5.896a.5.5 0 0 1 .452.288l1.812 3.906a.5.5 0 0 1-.242.665.488.488 0 0 1-.21.041Z" fill="#233862"/><path d="M42.748 48.876h-4.283a.756.756 0 0 1 0-1.512h4.283a.758.758 0 0 1 .534 1.29.757.757 0 0 1-.534.222Z" fill="#233862"/><path d="M38.39 46.552c.14.104 2.625-.207 3.425.297.801.503 1.569 1.906 1.209 2.407-.36.5-2.059-1.003-2.558-.977-.5.026-1.937-.42-1.937-.42l-.138-1.307Z" fill="#FFB27D"/><path d="M39.15 46.354s.259.451.255.846c-.008.665-.256.982-.256.982a31.64 31.64 0 0 1-6.241-.227c-1.8-.261-3.67-.74-5.134-1.601-1.988-1.17-3.834-5.338-5.208-9.322a91.554 91.554 0 0 1-2.384-8.223c.676-1.64 2.468-2.628 3.976-2.383.827.132 2.764.771 3.206 1.347.673.883 2.572 8.957 4.061 12.777.323.844 7.724 5.804 7.724 5.804Z" fill="#F9DDBF"/><path d="M32.907 47.955c-1.798-.261-3.668-.74-5.133-1.602-1.988-1.17-3.835-5.338-5.208-9.32-.023-2.873-.023-5.246-.023-5.246l3.255 1.352c.104.2 1.15 10.063 3.5 12.066 1.996 1.705 3.27 2.537 3.61 2.75Z" fill="#EAC3A2"/><path opacity=".2" d="M73.146 105.525h1.565v-32.75h-1.565v32.75Z" fill="#233862"/><g opacity=".2"><path opacity=".2" d="M76.707 107.952a2.783 2.783 0 0 0-1.714-2.57 2.78 2.78 0 0 0-3.027.603 2.785 2.785 0 0 0 .42 4.279 2.771 2.771 0 0 0 3.508-.346c.52-.521.813-1.229.813-1.966Z" fill="#233862"/><path opacity=".2" d="M72.975 107.952a.957.957 0 0 1 1.14-.937.958.958 0 0 1 .749.75.956.956 0 0 1-.936 1.142.954.954 0 0 1-.953-.955Z" fill="#F99746"/></g><path d="M34.405 52.522a.498.498 0 0 1-.453-.289l-1.68-3.611h-5.575a.5.5 0 0 1 0-1h5.896a.5.5 0 0 1 .453.288l1.812 3.906a.503.503 0 0 1-.242.665.492.492 0 0 1-.21.041Z" fill="#233862"/><g opacity=".2"><g opacity=".2" fill="#2D53A0"><path opacity=".2" d="M55.875 109.402c-.116-.518 5.778-21.269 6.45-23.633l.192.055c-1.806 6.35-6.485 22.956-6.446 23.54l-.196.038Z"/><path opacity=".2" d="M47.346 94.33c.517-.116 21.24 5.785 23.601 6.459l-.055.192c-6.34-1.808-22.927-6.494-23.51-6.454l-.036-.197Z"/><path opacity=".2" d="M49.52 90.034c.526.094 17.377 13.538 19.291 15.07l-.124.156c-5.155-4.116-18.655-14.842-19.209-15.03l.042-.196Z"/><path opacity=".2" d="M71.43 96.041c-.501-.186-21.837 2.79-24.268 3.129l.028.198c6.53-.914 23.603-3.256 24.175-3.137l.065-.19Z"/><path opacity=".2" d="M54.517 86.377c.414.344 8.334 20.403 9.236 22.682l-.186.073c-2.422-6.139-8.792-22.171-9.182-22.61l.132-.145Z"/><path opacity=".2" d="M68.794 90.29c-.527.088-17.55 13.305-19.49 14.811l.123.158c5.209-4.047 18.85-14.591 19.406-14.774l-.038-.194Z"/></g><path opacity=".2" d="M59.583 99.44a1.667 1.667 0 0 0-1.274-3.08 1.667 1.667 0 0 0 1.274 3.08Z" fill="#F99746"/><path opacity=".2" d="M45.863 97.636c0-2.591.768-5.124 2.205-7.278a13.087 13.087 0 0 1 5.872-4.826 13.068 13.068 0 0 1 14.259 2.84 13.114 13.114 0 0 1-1.983 20.157 13.076 13.076 0 0 1-7.269 2.208 13.091 13.091 0 0 1-9.247-3.842 13.123 13.123 0 0 1-3.837-9.259Zm1.399 0c0 2.315.685 4.577 1.97 6.502a11.686 11.686 0 0 0 11.999 4.977 11.693 11.693 0 0 0 9.183-9.196 11.717 11.717 0 0 0-4.97-12.014 11.678 11.678 0 0 0-6.494-1.973 11.69 11.69 0 0 0-8.262 3.431 11.72 11.72 0 0 0-3.426 8.273Z" fill="#233862"/></g><path d="M30.828 48.876h-4.282a.757.757 0 0 1 0-1.512h4.282a.756.756 0 0 1 0 1.512Z" fill="#233862"/><path d="M68.648 69.748s2.422.25 2.722.584c.3.333 1.398 2.156 1.432 2.495.033.338.008.964-.241.863-.25-.1-1.298-1.767-1.828-1.791-.53-.025-2.227-.736-2.227-.736l.142-1.415Z" fill="#ED985F"/><path d="m66.11 82.705-22.538.233-10.14-31.735 20.847-.232 11.83 31.734Z" fill="#2B478B"/><path d="M58.833 52.587s.447 11.668 1.532 12.829c.702.75 8.28 4.332 8.28 4.332l-.075 1.43s-9.859-1.397-11.311-3.157c-2.869-3.475-3.059-12.947-3.197-13.956-.14-1.008 2.745-3.027 4.771-1.477Z" fill="#ED985F"/><path d="M81.022 101.954h-7.544s-.281-1.206.213-2.025c.439-.725.271-1.14-.054-1.739.4.173.835.255 1.27.24.376-.022.774-.192 1.123-.395.324.37 1.714 1.948 2.148 2.261.494.354 2.692.227 2.844 1.658Z" fill="#423B7D"/><path d="M46.243 74.331c.502 3.025 3.18 5.203 6.242 5.166 3.799-.045 9.346-.122 11.379-.198 4.31-.163 5.93.01 5.916.133-.193 1.813-.353 1.036 1.655.898 0 0 7.101-.2 4.977-5.066-2.125-4.864-22.302-6.38-24.085-6.17-1.513.18-6.862.55-6.084 5.237Z" fill="#CD584D"/><path d="M76.799 77.174c-.091 3.439-.62 12.968.715 20.622.339 1.942-2.444 2.001-2.463 2.004-.529.063-1.457.104-1.765-.275-2.145-2.666-5.172-15.04-4.352-20.179.402-2.505 2.897-2.46 4.912-3.385 1.24-.568 2.989-.153 2.953 1.213Z" fill="#CD584D"/><path d="M39.628 98.18h1.565V72.044h-1.565v26.138ZM51.611 31.723a6.935 6.935 0 0 1 6.324 1.42 18.52 18.52 0 0 1 2.415 2.466c1.965 2.444-1.377 5.168-.863 6.007.514.839 1.628 1.457 1.261 3.287-.367 1.83-3.337 4.35-4.344 4.512-10.197 1.645-14.974-3.76-11.72-7.01 3.252-3.25 1.6-7.599 4.285-9.479a8.557 8.557 0 0 1 2.642-1.203Z" fill="#233862"/><path d="M59.173 51.746c-.815.639-1.85 1.185-3.168 1.572-4.94 1.45-7.102-2.68-7.99-5.547a4.297 4.297 0 0 1 1.667-.621c.359-.064.738-.114 1.053-.148.537-.464 1.273-2.279 1.301-5.027l.24.05 4.006.855s-.103 1.265-.128 2.457c-.015.933.025 1.821.213 2.028.275.08.524.163.524.163.06.09.062.049.042.02.88 1.324 1.63 2.73 2.24 4.198Z" fill="#FFB27D"/><path d="M56.284 42.882s-.11 1.266-.13 2.459c-2.247-.096-3.408-2.167-3.879-3.315l4.009.856Z" fill="#ED985F"/><path d="M57.017 44.022s-5.321.013-5.275-3.306c.047-3.318-.614-5.552 2.786-5.696 3.4-.144 4.043 1.127 4.298 2.238.254 1.111-.422 6.676-1.809 6.764Z" fill="#FFB27D"/><path d="M58.689 35.406c-.808-1.01-1.433-.8-1.786-.504-2.886-1.643-4.793.698-4.793.698-.39 2.376-2.124 3.716-2.124 3.716s.984.698 3.207.07c2.843-.806 3.689-3.363 3.8-3.754.32.296.724.474 1.063 1.14.402.788.653 1.242.735 2.574-.002-.001 1.11-2.426-.102-3.94ZM64.536 103.372h18.917v-1.536H64.536v1.536Z" fill="#233862"/><path d="M43.927 74.331c.501 3.025 3.18 5.203 6.242 5.166 3.798-.045 9.345-.122 11.378-.198 4.31-.163 5.93.01 5.916.133-.194 1.813-.353 1.036 1.655.898 0 0 7.102-.2 4.976-5.066-2.125-4.864-22.3-6.38-24.083-6.17-1.515.18-6.863.55-6.084 5.237Z" fill="#FF685B"/><path d="M43.903 64.231c.362-2.476-.517-11.853 1.439-14.784 1.415-2.119 3.376-2.956 5.798-2.995.78.442 3.748 2.114 4.912 1.817l.065-.02c.546-.17.732-.572.251-.882 0 0 1.984.43 2.6 1.13.592.674.566 2.117.754 3.82.046.42.054.845.103 1.266.233 1.914-.384 2.121-2.49 7.645-1.034 2.7-.547 4.856.14 6.291a2.816 2.816 0 0 1-1.02 3.599c-4.159 2.635-12.246 7.22-12.53 3.21-.288-4.065-.521-6.675-.022-10.097Z" fill="#F9DDBF"/><path d="M50.96 52.23s1.997 13.578 3.328 14.728c.86.744 9.413 2.122 9.413 2.122l.14 1.32s-12.206.898-12.9-.123c-2.818-4.115-4.79-14.766-5.06-15.857-.271-1.092 2.662-3.66 5.079-2.19Z" fill="#FFB27D"/><path d="M78.703 101.851H71.16s-.282-1.204.213-2.024c.439-.725.27-1.139-.055-1.739.401.174.835.256 1.272.24.375-.022.772-.193 1.121-.395.325.37 1.715 1.948 2.15 2.261.492.354 2.69.228 2.842 1.657Z" fill="#746DAE"/><path d="M74.483 77.174c-.091 3.439-.62 12.968.713 20.622.34 1.942-2.443 2.001-2.462 2.004-.529.063-1.456.104-1.765-.275-2.145-2.666-5.172-15.04-4.35-20.179.4-2.505 2.896-2.46 4.91-3.385 1.24-.568 2.989-.153 2.954 1.213Z" fill="#FF685B"/><path d="M57.9 42.065s-.517-.17-1.918.026c0 0 .104.546 1.15.541.594-.003.768-.567.768-.567Z" fill="#fff"/><path d="M52.857 56.297s-3.62 3.139-7.82 2.072c0 0-1.516-10.133 3.748-10.272 0-.005 4.362 1.726 4.072 8.2Z" fill="#F9DDBF"/><path d="M41.193 82.86h25.285v-1.993H41.194v1.993Z" fill="#233862"/><path d="m64.537 103.371 1.809-1.046-12.374-21.46-1.809 1.046 12.374 21.46Z" fill="#233862"/><path d="M41.193 80.867c.463 0 2.218-1.657 4.974-1.569 2.755.09 18.126 0 18.126 0s2.007-.207 2.194 1.572l-25.294-.003Z" fill="#746DAE"/><path d="M64.292 105.525h1.565v-32.75h-1.565v32.75Z" fill="#233862"/><path d="M63.703 69.076s2.705.155 3.005.489c.3.333 1.397 2.155 1.43 2.495.034.34.01.963-.24.864-.25-.1-1.286-1.9-1.817-1.926-.53-.025-2.238-.602-2.238-.602l-.14-1.32Z" fill="#FFB27D"/><path d="M38.646 73.7H68.14a3.284 3.284 0 0 0-3.278-3.282H40.596a1.95 1.95 0 0 0-1.805 1.207 1.958 1.958 0 0 0-.148.749l.003 1.327Z" fill="#233862"/><path d="M37.338 109.402c-.116-.518 5.778-21.269 6.45-23.633l.192.055c-1.806 6.35-6.485 22.956-6.446 23.54l-.196.038Z" fill="#2D53A0"/><path d="M28.81 94.33c.518-.116 21.242 5.786 23.603 6.459l-.055.192c-6.341-1.808-22.927-6.493-23.51-6.454l-.037-.197Z" fill="#2D53A0"/><path d="M30.978 90.034c.526.094 17.377 13.538 19.291 15.069l-.124.157c-5.156-4.116-18.655-14.842-19.208-15.03l.04-.196Z" fill="#2D53A0"/><path d="M52.892 96.04c-.5-.186-21.835 2.79-24.267 3.13l.028.198c6.53-.914 23.603-3.257 24.175-3.137l.064-.19Z" fill="#2D53A0"/><path d="M35.981 86.377c.414.344 8.333 20.403 9.235 22.682l-.185.073c-2.424-6.139-8.792-22.171-9.183-22.61l.133-.145Z" fill="#2D53A0"/><path d="M50.257 90.29c-.526.088-17.55 13.306-19.49 14.812l.124.157c5.209-4.047 18.85-14.591 19.405-14.773l-.039-.195Z" fill="#2D53A0"/><path d="M38.744 97.905a1.668 1.668 0 0 1 1.028-1.54 1.662 1.662 0 0 1 2.269 1.215 1.667 1.667 0 0 1-1.633 1.992 1.663 1.663 0 0 1-1.664-1.667Z" fill="#F99746"/><path d="M27.326 97.636c0-2.591.767-5.124 2.205-7.278a13.087 13.087 0 0 1 5.872-4.826 13.068 13.068 0 0 1 14.259 2.84 13.114 13.114 0 0 1-1.983 20.157 13.077 13.077 0 0 1-7.269 2.208 13.091 13.091 0 0 1-9.247-3.842 13.123 13.123 0 0 1-3.837-9.259Zm1.399 0c0 2.315.685 4.577 1.97 6.502a11.686 11.686 0 0 0 11.999 4.977 11.693 11.693 0 0 0 9.183-9.196 11.717 11.717 0 0 0-4.97-12.014 11.678 11.678 0 0 0-6.494-1.973 11.691 11.691 0 0 0-8.258 3.433 11.722 11.722 0 0 0-3.425 8.271h-.005ZM67.853 107.952a2.783 2.783 0 0 0-1.714-2.57 2.78 2.78 0 0 0-3.027.603 2.785 2.785 0 0 0 .421 4.279 2.771 2.771 0 0 0 3.507-.346c.52-.521.813-1.229.813-1.966Z" fill="#233862"/><path d="M64.121 107.952a.957.957 0 0 1 1.14-.937.958.958 0 0 1 .75.75.956.956 0 0 1-.936 1.142.954.954 0 0 1-.954-.955Z" fill="#F99746"/><path d="M12.318 30.616c-.374-.725 8.172-3.327 8.304 3.81 0 0 16.003-.395 8.362-9.322-2.645-3.092-2.373-5.649-2.293-8.028.08-2.38-1.648-9.298-7.572-8.602 0 0-1.551-.631-3.486.374-4.404 2.283-14.266 24.4-3.315 21.768Z" fill="#163560"/><path d="M1.492 102.627S-.3 104.266.044 105.43c.346 1.164 1.966 1.941 2.188 3.363.222 1.422 1.093 2.199 1.88 2.199h3.753s.58-1.001-.82-1.302c-1.399-.302-1.927-1.975-1.84-3.522.089-1.547-.13-3.625-.13-3.625l-2.974-.69-.609.774ZM16.67 103.322s-.644 7.026.143 7.415h10.159s-.089-1.27-1.707-1.528c-1.617-.258-4.461-1.208-4.942-3.32-.481-2.113-3.654-2.567-3.654-2.567Z" fill="#233862"/><path d="M9.49 53.52c2.07-4.661 3.343-5.992 3.104-7.437-.181-1.076.548-20.053.548-20.053.247-.076.74-.144 1.01-.207a2.53 2.53 0 0 0 1.847-1.609c.353-.99.633-2.451.627-4.283l.265.053 4.466.886s-.103 1.407-.103 2.733v.032a2.574 2.574 0 0 0 1.854 2.486c.564.164 1.055.302 1.055.302s1.639 4.688 1.953 9.504c.313 4.816-2.982 6.907.024 16.531 3.064 9.832-17.795 3.634-16.65 1.062Z" fill="#FFB27D"/><path d="M21.353 20.873s-.103 1.407-.103 2.733c-2.498-.071-3.82-2.353-4.361-3.619l4.464.886Z" fill="#E8945B"/><path d="M22.187 22.128s-5.911.098-5.915-3.59c-.004-3.687-.77-6.159 3-6.377 3.77-.217 4.508 1.188 4.81 2.419.3 1.23-.357 7.428-1.895 7.548Z" fill="#FFB27D"/><path d="M21.968 12.07s-1.616 4.324-4.099 4.967c-2.482.642-3.562-.027-3.562-.027s1.906-1.516 2.301-4.162c-.004 0 4.139-2.837 5.36-.778Z" fill="#163560"/><path d="M21.568 12.422s1.201.449 1.695 1.326a5.97 5.97 0 0 1 .8 3.386s1.219-2.941-.152-4.605c-1.453-1.764-2.343-.107-2.343-.107Z" fill="#163560"/><path d="M20.902 19.84a1.487 1.487 0 0 0 1.224.5 1.085 1.085 0 0 0 .911-.603s-1.208-.291-2.135.103Z" fill="#EBF3FA"/><path d="m25.27 45.22-5.866 1.754-1.862-.457-5.29-1.298s-.684-.227-1.29-1.628c-.115-.265-.322-1.073-.538-2.027a57.123 57.123 0 0 1-.627-3.18c-.207-1.292-.62-2.9-.974-4.633a31.655 31.655 0 0 1-.602-3.927 3.334 3.334 0 0 1 2.951-3.576l1.966-.217c6.232 5.09 11.02.399 11.02.399s1.638 2.918 2.71 7.121c1.073 4.203-1.598 11.668-1.598 11.668Z" fill="#F9DDBF"/><path d="M24.898 46.352s2.905 9.054 3.091 12.137c.186 3.083-5.553 43.787-5.783 45.207-.217 1.339-1.878 2.192-1.878 2.192s-.764.451-1.853.143c-1.512-.427-1.99-.939-1.99-.939s-2.261-29.031-.862-39.4a164.569 164.569 0 0 0 1.42-19.34h7.855Z" fill="#CD584D"/><path d="M12.595 46.083S8.164 52.035 7.75 56.06c-.413 4.025-.649 18.16-1.529 22.082-.88 3.922-4.113 11.472-4.113 23.708 0 0 .337.701 1.374 1.075.396.134.8.245 1.208.335a1.898 1.898 0 0 0 2.125-1.01C9 97.843 15.965 83.629 16.322 80.678c.252-2.088 2.451-15.906 7.247-24.016 1.152-1.946-.707-9.688-.707-9.688l-10.267-.89Z" fill="#FF685B"/><path d="M21.033 19.939s.104.435 1.181.367c0 0 .908-.056.88-.533 0 0-.88-.34-2.06.166Z" fill="#fff"/><path d="M25.36 44.955s-1.166.924-3.483.97c-2.767.057-9.62-.706-9.62-.706a5.678 5.678 0 0 0-.292 1.753s8.378 2.115 13.226.31c-.003-.001.623-1.18.169-2.327Z" fill="#233862"/><path d="M21.283 46.883c0-.79.566-1.431 1.262-1.431.696 0 1.263.642 1.263 1.43 0 .79-.567 1.431-1.263 1.431s-1.262-.64-1.262-1.43Zm.414 0c0 .557.379 1.012.844 1.012.465 0 .844-.455.844-1.012 0-.557-.379-1.012-.844-1.012-.465 0-.844.456-.844 1.012Z" fill="#fff"/><path d="M15.41 44.955c-2.263-1.159-3.864-2.302-4.982-3.39a57.202 57.202 0 0 1-.627-3.181c-.207-1.292-.918-4.487-1.276-6.215l9.42 13.588s.424.715-2.535-.802ZM18.744 35.901s4.19 6.66 5.404 7.857c1.213 1.197-4.955-.95-4.955-.95l-.449-6.907Z" fill="#EAC3A2"/><path d="M28.273 46.587c.14.103 2.625-.208 3.425.296.8.503 1.568 1.907 1.21 2.407-.36.5-2.06-1.003-2.56-.977-.5.026-1.935-.414-1.935-.414l-.14-1.312Z" fill="#FFB27D"/><path d="M8.525 32.164s4.418 11.777 8.513 14.19c4.095 2.412 11.378 1.829 11.378 1.829s.207-.324.27-1.011c.027-.34-.27-.818-.27-.818s-7.401-4.96-7.728-5.8c-1.49-3.821-3.65-8.71-4.552-9.362-.9-.652-6.599-1.481-7.61.972Z" fill="#F9DDBF"/><path d="m100.354 56.782-10.916 53.774.641.131 10.917-53.775-.642-.13Z" fill="#163560"/><path d="m101.474 56.48-1.355-.278-1.233 5.96 1.355.277 1.233-5.96Z" fill="#163560"/><path d="m125.554 104.274 1.832-.594a57.732 57.732 0 0 0-.436-10.939c-.517-3.778-1.461-7.871-3.174-11.157-.776-1.487-1.708-2.81-2.829-3.864 0 0-1.405-3.266-3.266-7.632-2.069-4.853-15.016-6.276-7.628 3.892 1.516 2.086 3.143 5.76 5.094 7.99 3.334 3.813 5.689 8.265 7.3 12.184 2.309 5.605 3.107 10.12 3.107 10.12Z" fill="#FFB27D"/><path d="M129.722 104.552c.555.9-.644 1.783-2.126 2.614-1.482.832-.869.915-2.765 2.329-1.896 1.413-3.013 1.257-3.304 1.05-.258-.183.517-1.055 1.329-2.01.102-.121.206-.242.311-.364.908-1.088 1.042-2.456 1.468-3.873.404-1.347-.235-4.68-.235-4.68l2.53-2.013s.517 3.034.797 4.299c.167.744.774 1.365 1.265 1.824.279.241.525.518.73.824Z" fill="#FFB27D"/><path d="M127.596 107.167c-1.482.828-.869.914-2.765 2.328-1.896 1.414-3.013 1.257-3.304 1.05-.258-.183.517-1.055 1.329-2.01l.025.009a6.622 6.622 0 0 0 3.175-1.531c1.191-1.059 2.115-2.546 2.932-3.285.281.242.528.52.734.829.555.896-.644 1.778-2.126 2.61Z" fill="#1C468A"/><path d="M112.877 8.843s4.467-.544 6.712 3.618c2.244 4.161 2.063 10.19 4.24 13.032 2.178 2.843-.363 5.54-.363 5.54l-16.963.573s-1.18-3.179 0-6.993c1.179-3.815-4.578-15.193 6.374-15.77Z" fill="#B64C41"/><path d="M97.768 59.346c.174.663.742 2.162 1.183 2.162.36 0 .49-1.836.952-2.226.671-.565 1.218-1.75 1.305-2.038.18-.591.349-.715.349-.715s5.362-9.817 5.781-12.325c.137-.818.489-2.46.902-4.298.448-1.999.967-4.23 1.36-5.903-1.712-.335-3.606-.452-5.15-.482a336.727 336.727 0 0 0-.839 5.918c-.36 2.687-.634 4.772-.803 5.218-.466 1.226-1.751 7.833-2.963 11.264-.139.337-.532 1.217-.963 1.515-.536.366-1.288 1.245-1.114 1.91Z" fill="#FFB27D"/><path d="M105.547 35.555c.31-4.744 3.977-9.845 3.977-9.845l.361-.034a.325.325 0 0 0 .277-.213c.137-.375.176-1.195.174-2.05 0-1.306-.103-2.693-.103-2.693l4.399-.872.262-.052c-.009 2.216.413 3.882.864 4.813a1.483 1.483 0 0 0 1.124.813c.945.132 2.607.414 3.729.885.545.228.96.5 1.104.818 1.21 2.658-16.476 13.173-16.168 8.43Z" fill="#FFB27D"/><path d="M110.232 20.718s.104 1.386.104 2.692c2.462-.069 3.764-2.317 4.297-3.564l-4.401.872Z" fill="#E8945B"/><path d="M109.412 21.954s5.825.096 5.829-3.537c.004-3.633.758-6.067-2.961-6.281-3.718-.215-4.442 1.17-4.739 2.382-.297 1.212.355 7.318 1.871 7.436ZM101.283 106.626l1.869.46a57.64 57.64 0 0 0 5.379-9.529c1.552-3.484 2.896-7.462 3.167-11.158.123-1.674.026-3.29-.373-4.777 0 0 .523-3.522 1.241-8.21.794-5.217 1.823-11.888 2.629-16.792l-.487-.145-7.952-4.661s-3.653 8.345-2.722 20.885c.191 2.573-.357 6.553.129 9.479.827 4.998.487 10.024-.201 14.207-.983 5.982-2.679 10.241-2.679 10.241Z" fill="#FFB27D"/><path d="M107.716 12.498c.898-1.092 1.578-.854 1.965-.526 3.123-1.735 5.237.84 5.237.84.39 2.607 2.267 4.1 2.267 4.1s-1.034.552-3.509.026c-2.934-.621-3.742-3.935-3.859-4.364-.355.32-1.056 1.014-1.27 1.695-.29.925-.421 2.83-.975 2.764-.005 0-1.207-2.896.144-4.535Z" fill="#B64C41"/><path d="M101.926 85.034c7.034 4.025 25.549-2.382 25.53-2.754-.103-1.967-1.877-13.826-3.967-25.14-1.284-6.958-4.704-9.558-4.157-9.996.003-.003.005-.006.009-.008 2.108-1.5 3.798-17.328 2.391-20.006a1.083 1.083 0 0 0-.345-.365.115.115 0 0 0 .013-.016c-1.317-.963-4.008-1.257-4.008-1.257s-1.448 3.556-1.894 4.111c-2.871 3.59-8.027 1.968-7.325-.266.254-.815 1.557-3.379 1.714-3.665a3.557 3.557 0 0 0-.364.036 68.4 68.4 0 0 0-1.918.277c-.865.147-1.08.25-1.296.415-.759.76-1.747 2.648-1.825 6.017-.03 1.253-1.334 15.091 2.884 14.851.095 0 .013.22-.169.648-.596 1.37-2.285 4.81-2.775 9.218-1.594 14.36-2.498 27.9-2.498 27.9Z" fill="#F9DDBF"/><path d="M110.874 19.739s-.082.453-1.198.444c0 0-.937-.006-.936-.5 0 0 .888-.4 2.134.056Z" fill="#fff"/><path d="M104.678 109.06c0 1.058-1.485 1.176-3.182 1.102-1.698-.075-1.22.32-3.575.518-2.355.198-3.223-.518-3.36-.85-.125-.292.993-.621 2.186-1.008l.452-.147c1.345-.447 2.172-1.538 3.285-2.519 1.049-.932 2.26-4.104 2.26-4.104l3.207-.377s-1.159 2.852-1.583 4.076c-.249.725-.061 1.568.117 2.217.113.354.178.721.193 1.092Z" fill="#FFB27D"/><path d="M101.496 110.162c-1.698-.075-1.22.32-3.575.518-2.355.198-3.223-.518-3.36-.85-.125-.292.993-.621 2.186-1.008l.016.021a6.61 6.61 0 0 0 3.504.372c1.571-.272 3.138-1.05 4.221-1.243.112.353.176.718.191 1.088-.003 1.058-1.486 1.176-3.183 1.102Z" fill="#1C468A"/><path d="M101.926 85.034c7.034 4.025 25.549-2.382 25.53-2.754-.103-1.967-1.877-13.826-3.967-25.14-1.284-6.958-4.704-9.558-4.157-9.996-.131.104-2.114 1.708-5.752 1.49a60.113 60.113 0 0 1-6.381-.714c-.596 1.37-2.285 4.808-2.775 9.218-1.594 14.357-2.498 27.896-2.498 27.896Z" fill="#746DAE"/><path d="M119.34 47.136s-5.76 2.406-11.973.135l-.31.975s6.391 2.224 12.536-.306l-.253-.804ZM107.252 15.94h1.867a.255.255 0 0 1 .183.076.263.263 0 0 1 .057.084.26.26 0 0 1 .019.1v.441a.784.784 0 0 1-.48.72.784.784 0 0 1-.299.06h-.954a.787.787 0 0 1-.79-.79v-.296a.396.396 0 0 1 .397-.396ZM112.399 17.421h-.957a.778.778 0 0 1-.779-.78V16.2a.26.26 0 0 1 .019-.1.28.28 0 0 1 .057-.084.252.252 0 0 1 .183-.076h1.867a.4.4 0 0 1 .397.397v.295a.788.788 0 0 1-.787.79Z" fill="#163560"/><path d="M110.932 16.578c-.009 0-.823-.353-1.6 0l-.059-.128c.837-.378 1.68-.016 1.715 0l-.056.128Z" fill="#163560"/><path d="M125.69 43.354c.068-.084-3.032-1.092-4.853-.656-1.086.26-.644 1.565.245 1.658.888.092 4.015-.278 4.608-1.002Z" fill="#FFB27D"/><path d="M120.345 43s-1.005 1.346-1.005 1.975.546 2.108 1.08 1.944c.533-.163.759-1.575.841-1.902.081-.328.697-.553.838-1.003.071-.207.126-.42.163-.635L120.345 43ZM123.067 30.235c-.016-.008 7.977 13.36 6.948 15.84-1.03 2.48-1.784.364-2.679-.622-.157-.17-7.325-9.438-7.098-10.934.226-1.495 2.829-4.284 2.829-4.284ZM119.246 45.05s-3.468.439-3.795.684c-.327.246-1.12 1.9-1.034 2.408.085.509 1.201 1.31 1.583 1.31.383 0 .517-.847.877-1.035.36-.189.688-.236.961-.31.518-.142 1.505-.593 1.505-.593l-.097-2.463Z" fill="#FFB27D"/><path d="M134.987 28.453s-4.564 12.363-6.529 13.317c-1.965.953-9.206 3.28-9.206 3.28v2.843s7.371.117 11.03-.953c3.658-1.07 8.42-5.063 8.42-5.063l-3.715-13.424Z" fill="#423B7D"/><path d="m144.514 16.747-4.465 8.481-1.065.077-.481 1.352-4.473 13.502s-2.482-17.155 10.484-23.412Z" fill="#423B7D"/><path d="M137.067 24.246s-4.937 18.229-5.413 35.613c0 0 4.095 1.43 10.528.299 6.466-1.138-5.115-35.912-5.115-35.912ZM159.572 110.852h4.44c.558-.305 1.056-1 1.213-2.037.217-1.432 1.82-2.213 2.166-3.384.347-1.172-1.429-2.819-1.429-2.819l-.297-.383-.31-.398-2.946.694s-.074.704-.117 1.599a20.512 20.512 0 0 0-.014 2.045c.087 1.561-.435 3.243-1.821 3.547-1.024.224-.982.833-.885 1.136Z" fill="#423B7D"/><path d="M133.812 110.852h10.152c.487-.597.31-2.797.234-3.522l-.026-.23s-3.466-2.776-3.942-.65a2.59 2.59 0 0 1-.052.197c-.6 1.987-3.29 2.891-4.844 3.143-1.009.169-1.383.695-1.522 1.062Z" fill="#233862"/><path d="M135.746 54.12s.527 6.574 1.145 14.477c.841 10.738 1.852 23.925 1.952 26.424.173 4.338.867 11.278.867 11.278s1.646 1.648 4.938.953c0 0 2.935-9.906 3.773-20.388l.039-.517c.78-10.668 1.992-33.143 1.992-33.143l-14.706.915Z" fill="#FF685B"/><path d="M135.746 54.12s.527 6.574 1.145 14.477l11.53 18.267.039-.517c.78-10.668 1.992-33.143 1.992-33.143l-14.706.915Z" fill="#CD584D"/><path d="M138.15 54.9s9.487 23.812 15.723 35.007c6.236 11.195 8.187 14.314 8.187 14.314s3.574-1.431 3.899-2.407c0 0-2.386-21.604-6.563-26.87-2.361-2.976-5.133-11.911-5.263-15.03-.131-3.118-.844-9.304-.844-9.304L138.15 54.9Z" fill="#FF685B"/><path d="M140.514 20.186c3.707 1.172 10.121-1.99 10.121-1.99s-3.413-2.569-3.239-7.909L144.53 12.6l-1.948 1.57c.028.854.102 1.705.222 2.55.038.296.084.616.137.957a.681.681 0 0 1-.31.693 8.758 8.758 0 0 0-2.117 1.816Z" fill="#FFB27D"/><path d="M135.34 54.667a.6.6 0 0 0 .389.148c1.392-.018 5.452.755 8.887.402 2.897-.277 5.459-1.14 8.211-2.373.365-.163 1.207-.613 1.188-1.022a53.93 53.93 0 0 0-.112-1.916c-.196-2.844-.535-7.737-.207-13.382.06-1.05.091-2.094.095-3.12.028-7.65-1.487-14.38-4.531-16.657 0 0-2.123 1.192-3.592 1.663-1.44.46-2.181.368-2.928-.128 0 0-1.453.725-2.075 1.4-1.439 1.571-2.562 3.656-3.304 6.648-.632 2.547-1.224 6.26-1.428 11.018-.089 2.156-.686 17.244-.593 17.32Z" fill="#fff"/><path d="M156.438 58.213c-9.357 5.875-16.991 2.9-16.991 2.9-1.368-10.72-.611-23.656-.433-26.812.453-13.852 10.25-17.552 10.25-17.552l4.082 12.64.603 5.625 1.09 10.16 1.399 13.039Z" fill="#746DAE"/><path d="M142.584 14.171c.027.853.101 1.704.221 2.549 2.158-.37 4.604-3.862 4.604-3.862-1.097-.317-2.059-.374-2.877-.258l-1.948 1.571Z" fill="#ED975D"/><path d="M140.978 14.071s6.677 1.112 7.303-3.063c.627-4.175 1.912-6.842-2.325-7.728-4.237-.885-5.305.582-5.854 1.929-.55 1.346-.845 8.466.876 8.862ZM159.908 50.457s.716.955.745 1.337c.192 2.59-.988 2.944 2.069 4.38 0 0 1.304.498 1.326-.518.022-1.016-.905-1.035-.736-2.45.196-1.638.176-1.657-.896-2.508l-.712-1.176-1.796.935Z" fill="#FFB27D"/><path d="M148.288 10.606s-.685-.114-.575-1.06c.111-.945.11-2.18-.658-1.949-.767.231-.805.845-1.121.486-.315-.36-.321-1.873-2.604-1.978-2.284-.106-3.207.69-4.273.222-1.067-.468-1.118-2.076-1.118-2.076s.302.575.759.758c0 0-1.772-2.427.279-4.09 2.051-1.663 4.137-.575 5.329-.502 2.615.158 4.304.31 5.158 2.036.855 1.725.502 6.498-1.176 8.153Z" fill="#2B478B"/><path d="M161.04 51.594s-.69.72-.734 1.02c-.139.96-.46 1.376-.299 1.48.334.217.776-.495.987-1.133.211-.638.046-1.367.046-1.367Z" fill="#FFB27D"/><path d="M155.038 45.172c-2.052-5.253-7.782-14.116-7.782-14.116l6.691 3.955 1.091 10.16Z" fill="#423B7D"/><path d="M161.73 51.194a10.46 10.46 0 0 1-2.399.134s-3.413-10.57-3.857-11.536c-.285-.621-4.642-5.064-7.692-8.13a6.526 6.526 0 0 1-1.493-6.878l2.973-8.037s2.31 1.353 4.753 5.573c3.018 5.213 6.334 13.607 6.923 14.971 1.759 4.079 2.38 13.224 2.38 13.224-.48.33-1.019.56-1.588.68Z" fill="#746DAE"/><path d="m149.264 16.747-4.465 8.481-2.29-.829.744 2.264-4.476 13.501s-2.476-17.16 10.487-23.417Z" fill="#423B7D"/><path d="M140.514 11.703s.259.689.91.707c.651.019 1.151-.614 1.151-.614s-1.408-.327-2.061-.093Z" fill="#fff"/><path d="M121.387 26.765s2.154 1.74 4.448 6.952c0 0-.466 3.351-6.494 4.263-6.029.911 2.046-11.215 2.046-11.215ZM106.793 26.16s-2.218.339-3.2 4.675c-.983 4.337-.837 6.672-.837 6.672s1.019 1.274 2.365.947c1.347-.327 1.672-12.294 1.672-12.294Z" fill="#F9DDBF"/><path d="M131.651 47.53s.443-.898-1.565-2.358c-1.517-1.104-5.068-2.08-5.068-2.08l-4.409.325s4.6 3.924 6.85 4.725c2.145.766 4.082.284 4.192-.613Z" fill="#FFB27D"/></svg>