<svg width="189" height="112" fill="none" xmlns="http://www.w3.org/2000/svg"><path d="m169.973 60.154-3.894 1.987-.78-2.701s.497-.935.721-2.465a10.27 10.27 0 0 0 .08-2.224l3.171 1.625a6.14 6.14 0 0 0-.125.725 5.284 5.284 0 0 0 .054 1.698c.115.517.345 1.008.773 1.355ZM163.025 60.707s-3.596-4.652-5.341-6.096c0 0-2.392-5.897-2.587-6.285-.195-.39-1.435.324-1.435.324s.878 5.732 1.804 7.431c.927 1.7 3.8 7.404 5.827 7.615 2.028.21 1.732-2.99 1.732-2.99Z" fill="#FFB27D"/><path d="M159.827 103.118s-.08.886.576 1.533c.398.374.647.882.699 1.426a.525.525 0 0 1-.256.49.526.526 0 0 1-.552-.006l-3.857-2.441a.654.654 0 0 1-.167-.959c.21-.268.45-.581.625-.828.379-.54 1.223-.635 1.223-.635l1.709 1.42ZM170.581 99.92s-.4.794-.027 1.636c.233.495.278 1.057.127 1.583a.532.532 0 0 1-.418.362.524.524 0 0 1-.511-.209l-2.694-3.685a.65.65 0 0 1-.113-.52.654.654 0 0 1 .311-.433 25.4 25.4 0 0 0 .884-.542c.553-.361 1.371-.142 1.371-.142l1.07 1.95Z" fill="#423B7D"/><path d="M177.25 91.928c-.574 2.126-6.381 8.997-6.381 8.997s-2.699-1.798-2.699-3.19c0 0 2.945-6.136 2.945-6.872 0-.174-.398-.876-1.002-1.854-1.04-1.688-2.691-4.202-3.966-6.273-1.096-1.78-1.914-3.23-1.828-3.547.246-.9 8.566-2.474 8.566-2.474s4.936 13.085 4.365 15.213Z" fill="#746DAE"/><path d="M170.111 89.009c-1.04-1.688-2.691-4.202-3.966-6.274.155-2.594.888-4.863 2.279-4.863 3.475 0 2.948.263 2.948.263s.898 7.675-1.261 10.874Z" fill="#423B7D"/><path d="M167.521 78.398s.757 14.268-.436 16.058c-1.193 1.79-6.452 9.367-6.452 9.367s-4.114-1.052-3.896-2.316c0 0 4.425-8.539 4.42-9.697-.005-1.158-2.103-11.626.108-13.416 2.211-1.79 6.256.004 6.256.004Z" fill="#746DAE"/><path d="M170.25 61.113s5.183-4.624 5.5-5.26c.317-.635 1.786-6.31 1.786-6.31l1.235.15s-.235 6.812-.756 8.137c-.522 1.324-6.623 6.968-6.623 6.968l-1.142-3.685Z" fill="#FFB27D"/><path d="M173.208 63.584c.022-.324 1.971-1.64 1.971-1.64.409-2.46-1.156-4.234-1.156-4.234l-2.348 1.672c-.454.028-.649.19-.649.19-.387-.105-1.548-.017-1.548-.017.017.56-.13 1.087-1.112 1.215-1.307.17-2.475-.722-3.067-1.324a4.957 4.957 0 0 0-1.784.254 2.666 2.666 0 0 0-.994-.261l-1.921-1.727s-2.251.65-2.606 4.042c0 0 2.527 1.924 2.71 3.443l.069.576.245 2.04.431 3.579-1.284 7.128a1.056 1.056 0 0 0 .788 1.21s.11.018.314.046c1.36.19 6.883.852 11.214-.325a2.102 2.102 0 0 0 1.534-2.202l-.917-11.497s.087-1.845.11-2.168Z" fill="#FF685B"/><path d="M163.019 74.389c-.086 2.486-.329 4.593-1.752 5.381-.204-.028-.314-.046-.314-.046a1.052 1.052 0 0 1-.788-1.21l1.284-7.128-.431-3.578.032-.095s2.078 3.495 1.969 6.676Z" fill="#CD584D"/><path d="M169.2 58.801c-1.804-.047-3.18-1.824-3.18-1.824l3.122.127a5.256 5.256 0 0 0 .058 1.697Z" fill="#EA9C68"/><path d="M170.076 57.797s-3.595.946-4.839-1.911c-1.34-3.088.129-5.337 1.352-5.488 2.436-.302 3.851.627 4.279 1.609.428.982 1.193 5.284-.792 5.79Z" fill="#FFB27D"/><path d="M168.648 56.186s.151.371 1.1.163c0 0 .797-.175.706-.594 0 0-.826-.18-1.806.431Z" fill="#fff"/><path d="M165.879 56.887s-.422-1.239-.372-1.9c0 0-.938-1.196-.391-1.493.546-.297.842.413.967.273.126-.139.321-2.49.985-2.417.665.074 3.122.837 4.2-.094 1.078-.931-1.536-4.56-5.966-3.158-4.43 1.402-3.525 6.33.577 8.789Z" fill="#2C3A64"/><path d="M163.118 50.031s-.201-.599.015-1.025c0 0 .011.588.241.851.231.263-.256.174-.256.174Z" fill="#2C3A64"/><path d="M163.208 49.613s-.549-.063-.808.36a.708.708 0 0 1 .777.015l.031-.375Z" fill="#2C3A64"/><path d="M177.534 49.543c.01-.335-.04-.669-.148-.986-.172-.45-.071-1.62.15-1.554.222.066.122.486.369.436.247-.05.643-1.409.964-1.285.322.124.555.581.456 1.57-.098.988-.555 1.97-.555 1.97l-1.236-.15ZM155.068 48.313a3.147 3.147 0 0 1-.025-1.12c.105-.533-.233-1.81-.466-1.694-.232.115-.041.562-.325.555-.284-.007-.983-1.438-1.315-1.24-.332.2-.504.752-.204 1.828.3 1.077.995 2.077.995 2.077l1.34-.406Z" fill="#FFB27D"/><path d="M114.604 49.792s4.929 3.201 6.511 4.825c0 0 6.072 1.902 6.476 2.064.404.162-.206 1.458-.206 1.458s-5.785-.408-7.555-1.193c-1.769-.785-7.686-3.183-8.063-5.186-.377-2.004 2.837-1.968 2.837-1.968Z" fill="#EA9C68"/><path d="m108.802 87.091-1.105 5.881h-2.005l-.518-7.177 3.628 1.296ZM117.835 86.562l1.254 6.48-1.757.074-3.342-6.318 3.845-.236Z" fill="#FFB27D"/><path d="M107.74 92.748s.473.864 1.376 1.06a2.248 2.248 0 0 1 1.353.831.524.524 0 0 1 .047.55.53.53 0 0 1-.471.29h-4.569a.657.657 0 0 1-.652-.722c.034-.339.07-.732.085-1.034.033-.662.743-1.255.743-1.255s.63.355.872.397c.53.089 1.216-.117 1.216-.117ZM119.041 92.749s.473.865 1.369 1.066a2.255 2.255 0 0 1 1.349.84.527.527 0 0 1-.429.837l-4.564-.025a.658.658 0 0 1-.649-.726c.036-.338.074-.732.095-1.034.037-.662.751-1.25.751-1.25s.626.359.868.401c.522.092 1.21-.11 1.21-.11Z" fill="#B2443B"/><path d="M118.877 86.831a21.704 21.704 0 0 1-3.994.782c-1.973.18-4.12 0-5.024-1.365-.263-.395-.411-1.082-.473-1.97-.379-5.436 2.494-18.412 2.494-18.412h3.351c0 .266 3.646 20.965 3.646 20.965Z" fill="#FF685B"/><path d="M114.882 87.613c-1.973.18-4.12 0-5.024-1.365-.263-.395-.411-1.082-.473-1.97l.008-.03c.535-1.987 1.987-14.333 1.987-14.333s5.015 13.2 3.502 17.698Z" fill="#CD584D"/><path d="M104.541 66.619s-1.506 10.107-2.187 20.893c0 0 4.73 1.944 9.118.39l.802-20.57-7.733-.713Z" fill="#FF685B"/><path d="M106.799 37.317s-.304-1.344-1.574-1.409c0 0 .405.242.473.498 0 0-.737-.62-1.879-.205-1.142.415-2.838 1.576-1.986 4.28.851 2.704-.89 3.376-1.59 5.12-.7 1.745 1.683 2.082 1.189 3.442-.494 1.36.977 4.58 4.717 3.174 3.739-1.406 4.59-6.803 3.001-8.12-1.59-1.319-2.351-6.78-2.351-6.78Z" fill="#B2443B"/><path d="M107.937 37.24s-1.679-.224-2.721.864c-.562.587.018 1.432.018 1.432l2.703-2.296Z" fill="#F99F46"/><path d="M113.026 39.846c-.032-.053-1.367-2.163-3.862-2.584-2.021-.342-3.912 1.086-4.223 3.112-.311 2.027.006 4.674 3.327 5.624l4.758-6.152Z" fill="#B2443B"/><path d="m112.412 48.917-3.759 2.23-.946-2.649s.436-.965.562-2.507c.06-.74.04-1.486-.061-2.223l3.269 1.42a6.012 6.012 0 0 0-.079.732 5.287 5.287 0 0 0 .161 1.69c.144.51.404.989.853 1.307Z" fill="#FFB27D"/><path d="M111.556 47.617c-1.797.067-3.29-1.62-3.29-1.62l3.128-.07a5.287 5.287 0 0 0 .162 1.69Z" fill="#EA9C68"/><path d="M112.367 46.559s-3.531 1.176-4.951-1.6c-1.533-2.996-.209-5.335 1.001-5.564 2.411-.457 3.883.378 4.373 1.334.489.956 1.526 5.198-.423 5.83Z" fill="#FFB27D"/><path d="M110.842 45.041s.174.362 1.108.095c0 0 .784-.224.662-.638.005-.002-.832-.128-1.77.543Z" fill="#fff"/><path d="m117.166 51.526-2.997-2.434a2.558 2.558 0 0 0-1.379-.596c-.212-.027-.656-.11-.903-.139.042.558.041 1.009-.933 1.18-1.299.228-2.588-.556-3.206-1.135-1.016.19-1.507.317-2.316.637a2.115 2.115 0 0 0-1.324 2.207l.997 8.597s-1.192 7.32-.988 7.34c1.367.13 7.347 1.33 11.621-.036.69-.22-.968-4.097-.635-12.025 2.375-1.42 2.063-3.596 2.063-3.596Z" fill="#35488B"/><path d="M109.896 39.725s.047 2.772-1.551 3.69c0 0 .632-1.306.419-2.104 0 0-.413 2.473-1.675 2.904-1.262.43-1.9-4.592.712-5.601 2.611-1.01 5.184.189 5.487 1.954.303 1.766.073 2.135.073 2.135s-1.217-3.365-3.465-2.978Z" fill="#B2443B"/><path d="M104.123 67.184c-.204-.02.988-7.34.988-7.34l-.997-8.597c-.051-.44.037-.885.253-1.27a.423.423 0 0 1 .203.094c2.092 1.765 4.015 8.92 4.015 8.92s1.009 5.793-4.462 8.193Z" fill="#2C3A64"/><path d="M103.81 52.214s-1.781 6.724-1.456 7.96c.326 1.237 3.795 4.098 4.373 4.286l.416-1.1s-2.638-3.64-2.414-4.033c.483-.851 2.414-5.807 2.414-5.807l-3.333-1.306Z" fill="#FFB27D"/><path d="M106.637 54.823s-2.046.358-4.043-1.703c0 0 1.696-4.963 3.811-3.957 2.114 1.005 1.605 4.463.232 5.66Z" fill="#35488B"/><path d="M107.145 63.36s1.747.342 1.821.907c.06.451-.735 1.19-1.163 1.035-.427-.155-1.074-.842-1.074-.842l.416-1.1Z" fill="#FFB27D"/><path d="M127.593 56.683s2.568-1.324 2.796-.851c.228.473-.316 1.878-.86 2.053-.544.175-2.142.258-2.142.258l.206-1.46Z" fill="#EA9C68"/><path d="M128.169 26.503c-.339.603-.165 12.016-.502 12.973-1.077 3.066-.27 10.893-.851 11.63-.582.737-1.211 2.316-.895 3.053.316.737.413 1.684 1.127 1.658.715-.026 4.952-25.187 4.997-25.84.044-.654-3.876-3.474-3.876-3.474ZM146.07 44.508s.913 1.122.843 1.65c-.07.526-.843 1.79-.843 1.79s-1.96-3.97-1.825-4.282c.135-.314 1.334-.563 1.334-.563l.491 1.404Z" fill="#FFB27D"/><path d="m124.287 106.332 1.887.702s8.194-11.363 9.202-21.361c.181-1.786.12-3.515-.269-5.11l.22-1.265c.064-.379.145-.833.236-1.353.266-1.526.632-3.614 1.052-5.992.964-5.473 2.212-12.467 3.183-17.61l-.509-.163-5.499-1.781-1.136-3.61-4.094-1.078s-.915 1.79-1.734 10.243a68.497 68.497 0 0 0-.39 3.658 72.3 72.3 0 0 0 .389 14.808c.19 1.47.429 2.983.719 4.541.216 1.143.248 2.7.158 4.488-.414 8.181-3.415 20.883-3.415 20.883Z" fill="#746DAE"/><path d="m126.438 61.615 8.893 17.68c.064-.378.144-.832.235-1.353.267-1.526.633-3.614 1.052-5.992.964-5.472 2.213-12.467 3.184-17.61l-.509-.163-5.501-1.778-1.135-3.61-4.095-1.078s-.914 1.79-1.733 10.243a64.163 64.163 0 0 0-.391 3.661Z" fill="#423B7D"/><path d="M145.048 24.395a.229.229 0 0 1-.015.035c-1.049 2.435-3.039 5.607-6.379 5.945-1.017.102-2.158-.057-3.436-.58-1.466-.599-2.589-1.35-3.448-2.175a29.303 29.303 0 0 1 3.157-4.645s.219-.016.581-.035c.146-.128.258-.546.346-1.093.057-.362.105-.78.142-1.206.039-.461.07-.934.094-1.357.043-.833.054-1.477.054-1.477l4.702-.498.284-.029a14.712 14.712 0 0 0 .072 3.595c.079.566.224 1.121.432 1.653.091.242.223.466.391.662.357.078.786.18 1.19.295.663.171 1.283.477 1.822.897a.084.084 0 0 1 .011.013Z" fill="#FFB27D"/><path d="M140.933 20.035s-2.289 1.937-5.076 1.798c.058-.362.105-.78.142-1.207.04-.46.07-.933.095-1.356 1.203-.03 2.812.172 4.839.765Z" fill="#ED985F"/><path d="M146.533 9.622c.159-.201 1.959-2.316 5.446.065 0 0-1.819-1.03-2.649-.506 0 0 1.805-.072 2.518.9.714.973.065 2.998-.322 3.537-.387.538-2.166 1.883-2.862 1.6a2.231 2.231 0 0 1-.714-.523c-.024.386-.072.77-.142 1.15-.688 3.785-4.087 5.478-5.014 4.333-.595-.733-1.726.37-1.726.37l-2.904-11.054s6.625-3.51 8.369.128Z" fill="#2C3A64"/><path d="M143.819 14.786c-.293 1.05-.946 2.27-1.562 3.76-1.005 2.443-4.005 2.043-5.771 1.562a11.207 11.207 0 0 1-1.325-.45c-1.43-.721.379-6.929 1.149-7.99.77-1.062 2.033-2.122 5.573-.424 2.051.985 2.34 2.094 1.936 3.542Z" fill="#FFB27D"/><path d="M118.385 109.499h9.501s.355-1.514-.268-2.547c-.552-.912-.341-1.432.068-2.187a3.664 3.664 0 0 1-1.6.301c-.473-.026-.974-.241-1.413-.496-.409.466-2.16 2.45-2.707 2.843-.621.447-3.389.287-3.581 2.086Z" fill="#423B7D"/><path d="M137.284 9.77c1.315-.705 1.883-.199 2.123.274 3.806-.433 4.771 2.912 4.771 2.912-.663 2.695.567 4.901.567 4.901s-1.297.215-3.432-1.378c-.652-.487-1.091-1.273-1.386-2.128.208 1.286.59 2.539 1.135 3.722-2.31-2.49-1.827-6.924-1.769-7.39-.473.168-1.436.568-1.917 1.142-.653.785-1.541 2.588-2.056 2.303.006 0-.009-3.303 1.964-4.359Z" fill="#2C3A64"/><path d="m152.657 39.476-7.077 3.628.491 1.404s10.479-1.314 11.101-3.886l-4.515-1.146Z" fill="#FFB27D"/><path d="M144.578 42.922c.189.447.395.975.6 1.552l-.01.033c-6.237-4.773.039-14.475.039-14.475.217.444.474.868.766 1.267.055.09.135.163.231.208a.578.578 0 0 1 .245.236c-.553 1.683-1.438 4.898-2.147 7.947a5.266 5.266 0 0 0-.007 2.337 5.4 5.4 0 0 0 .283.895Z" fill="#9E3530"/><path d="M147.302 25.173s8.993 8.062 9.869 15.449c0 0-1.284.466-2.933 0-1.649-.467-10.537-10.392-10.267-11.572.269-1.18 3.331-3.877 3.331-3.877Z" fill="#FFB27D"/><path d="M145.578 24.196s3.667 1.218 5.298 3.64c0 0-1.378 3.131-6.638 3.96.001 0-3.485-4.764 1.34-7.6Z" fill="#B5453C"/><path d="M145.526 106.029h2.604s3.655-13.27 1.5-23.086c-.385-1.753-.981-3.377-1.848-4.77l-.185-1.272-.197-1.36c-.222-1.532-.524-3.63-.867-6.021-.788-5.5-.562-12.532-1.241-17.722h-1.752l-5.781.02-1.975-.318-4.399-.993s-.368.471 1.487 8.76c.203 1.1.457 2.304.768 3.596a72.385 72.385 0 0 0 4.982 13.95 82.376 82.376 0 0 0 2.098 4.092c.561 1.019 1.077 2.489 1.547 4.216 2.155 7.903 3.259 20.908 3.259 20.908Z" fill="#746DAE"/><path d="M140.324 109.788h9.501s.228-1.447-.268-2.547c-.473-1.053-1.22-1.532-1.041-2.808-.603.622-1.587 1.318-2.961 1.136-.168.273-1.086 1.733-1.648 2.137-.623.444-3.392.284-3.583 2.082Z" fill="#423B7D"/><path d="M146.449 31.744a.58.58 0 0 0-.245-.236.534.534 0 0 1-.231-.208 8.359 8.359 0 0 1-.766-1.267c-.189-.425-.271-.82-.165-1.198.084-.289.19-.57.318-.844.06-.13.124-.26.189-.388a12.17 12.17 0 0 1 1.752-2.43c-1.293-1.128-4.091-1.693-4.091-1.693s-.044.151-.131.393c-.587 1.597-3.436 3.785-3.913 4.152-.596.454-6.428.26-6.528-.673-.095-.917 2.202-4.257 2.287-4.385v-.005c-2.725.112-3.856.605-3.856.605s-2.134.629-3.967 4.163c0 0 1.04.778 2.27 1.166a5.916 5.916 0 0 0-.284 1.904c-.002.127.007.254.025.379 2.326 12.272-1.399 17.117-1.399 17.117-1.164 2.147 17.259 5.48 18.023 3.424.331-.473.491-1.1.528-1.805.095-1.654-.488-3.754-1.093-5.445a32.73 32.73 0 0 0-.601-1.552c-.12-.29-.215-.591-.284-.898a5.266 5.266 0 0 1 .008-2.337c.716-3.041 1.601-6.256 2.154-7.94Z" fill="#B5453C"/><path d="m29.776 105.958-1.827.946a30.54 30.54 0 0 1-2.069-3.143c-.683-1.203-1.31-2.554-1.464-3.659-.373-2.686-3.217-7.096-2.92-7.853.297-.757 5.934-2.052 5.934-2.052s1.102 7.546 1.835 12.424c.213 1.426.396 2.623.51 3.337Z" fill="#FFB27D"/><path d="M28.384 95.423c-.903.442-1.86.765-2.845.96-.85.177-1.72.231-2.585.161-.152-.015-.233-.029-.233-.029s-1.015-.73-2.19-2.433c-1.078-1.561-1.879-3.794-1.879-3.822l8.61-.838 1.122 6.001Z" fill="#746DAE"/><path d="M25.538 96.383c-.85.177-1.72.231-2.585.161l.968-3.758s1.253 1.958 1.617 3.597Z" fill="#423B7D"/><path d="m29.776 105.958-1.827.946a30.54 30.54 0 0 1-2.068-3.143 7.237 7.237 0 0 0 3.384-1.135c.214 1.421.396 2.618.51 3.332Z" fill="#F1A34F"/><path d="M25.624 91.924s-2.309 3.257-3.706 7.833c-.33 1.079-1.45 2.421-2.583 3.613-1.1 1.158-2.21 2.176-2.622 2.675l-1.86-.895c.446-1.234.988-2.43 1.622-3.578.335-.613.734-1.19 1.188-1.721.594-.662.398-9.039.988-9.59.59-.552 6.973 1.663 6.973 1.663Z" fill="#FFB27D"/><path d="m26.723 89.985-3.405 6.927c-.02 0-2.54.078-4.33-.924-1.025-.574-1.486-1.254-1.486-1.254l1.062-4.749h8.16Z" fill="#746DAE"/><path d="M20.62 66.861s-1.16-2.438-3.96-.987c-2.799 1.452-.074 6.981-1.543 8.348-1.47 1.366.533 2.26.234 3.24-.298.98.554 2.094 2.513 1.963 1.96-.13 4.023-.025 4.909-1.74.885-1.714.683-5.487.341-6.016-.341-.529-2.495-4.808-2.495-4.808Z" fill="#AA443E"/><path d="m20.385 76.987.013.008c-.007.005-.013-.008-.013-.008ZM25.16 79.865l-4.762-2.872c.027-.01.122-.155.48-1.185.127-.364.218-.74.27-1.122 0-.03.008-.059.011-.088.03-.23.035-.462.013-.692l1.041.378 1.93.698c-.024.49.046.834.15 1.07.251.573.72.577.734.577l.132 3.236Z" fill="#FFB27D"/><path d="M24.295 76.051a3.576 3.576 0 0 1-3.145-1.365c-.035-.045-.052-.07-.052-.07l.062-.018 1.056-.315 1.929.698c-.023.49.046.834.15 1.07Z" fill="#ED985F"/><path d="M24.387 75.381s-4.142.455-4.228-2.345c-.085-2.8-.697-4.082 2.169-4.332s3.543.786 3.711 1.732c.528 2.959-.486 4.82-1.652 4.945Z" fill="#FFB27D"/><path d="M16.662 65.874c-.058-.13-.1-.214-.1-.214a.687.687 0 0 1 .1.214Z" fill="#D35C2B"/><path d="M25.72 76.908s3.974-3.05 4.395-4.061c.421-1.01 2.248-4.708 2.718-5.084 0 0 .988-.127 1.129.556.141.683-.94 4.739-1.693 5.96-.754 1.222-4.365 5.377-5.551 5.98l-.997-3.35Z" fill="#FFB27D"/><path d="M35.37 65.895c-.066.354-.21.733-.379.93-.223.262-.576.785-.8 1.126-.143.21-.235.367-.235.367l-1.126-.55s-.026-1.912.72-2.318c.027-.013.039-.026.065-.026.28-.152.574-.275.878-.367.353-.095.629-.105.786-.014.157.092.169.457.09.852Z" fill="#FFB27D"/><path d="M22.552 70.072c-1.466-.371-.906 2.226-1.277 2.048-.414-.2-1.126-.196-1.013.304.113.5.274.68.359.991.084.313 0 .931-.342.806-.341-.124-3.51-3.743-1.272-6.562 2.237-2.818 8.91-1.082 6.811 1.866-.37.52-2.224.81-3.266.547Z" fill="#AA443E"/><path d="M27.871 91.007s-1.245.662-3.204.629c-1.248-.019-3.9-.562-5.603-1.177-.972-.35-1.636-.724-1.555-1.04.114-.453.946-3.924 1.715-7.137.703-2.933 1.353-5.657 1.353-5.657s1.94 1.378 3.07.892c1.13-.487.985-1.041.985-1.041s.74-.299 1.086-.19c.346.11 1.33-.448 1.33-.448s1.088.84 1.13 2.65c.006.289-.013.579-.056.865l-.785.904s1.665 5.253.534 10.75Z" fill="#739AF0"/><path d="M32.8 108.201h-5.454a6.911 6.911 0 0 1 .02-1.645.472.472 0 0 1 .135-.249c.424.149.886.149 1.31 0 .361-.129.69-.333.965-.6.057.054 1.184 1.128 1.703 1.128.536-.003 1.351.255 1.32 1.366Z" fill="#AA443E"/><path d="M19.335 103.37c-1.1 1.158-2.21 2.176-2.622 2.675l-1.86-.895c.446-1.234.988-2.43 1.622-3.578a3.98 3.98 0 0 0 2.86 1.798Z" fill="#F1A34F"/><path d="M17.119 105.564s-.069 1.184.326 1.341c.395.157 1.135.545 1.135 1.296h-2.737s-1.883-.926-2.135-1.324c-.252-.399 1.255-2.075 1.255-2.075s.926 1.028 2.156.762Z" fill="#AA443E"/><path d="M21.637 86.32s1.196-.222 1.665.084c.468.307.606.785.27.981-1.057.614-2.127-.065-2.127-.065l.192-1Z" fill="#FFB27D"/><path d="M19.06 90.46c-.972-.35-1.636-.725-1.555-1.041.114-.453.946-3.924 1.715-7.137.227-.416.37-.662.37-.662s1.463 6.669-.53 8.84Z" fill="#4A82D3"/><path d="M20.624 77.003s-3.684.78-5.137 6.507a1.738 1.738 0 0 0 .392 1.589c.668.74 2.14 1.823 5.566 2.221.379.044.424-.904.424-.904-.037.074-2.326-1.48-3.3-2.315-.177-.152-.17-.474-.042-.663.329-.502.881-1.37 1.067-1.816.27-.652 2.06-4.324 1.03-4.619Z" fill="#FFB27D"/><path d="M20.573 76.628s-2.166.154-3.932 2.51c0 0 .598 2.166 3.406 2.743 0 .003 1.729-3.9.526-5.253Z" fill="#739AF0"/><path d="M45.394 78.98s-2.81 11.928-2.547 14.631c.358 3.64.49 13.535.49 13.535h2.798s2.597-8.042 1.943-13.282c-.352-2.824 6.406-15.232 6.406-15.232l-9.09.347Z" fill="#FFB27D"/><path d="m55.147 79.677-3.069 7.705-1.72 4.32c-.345.047-.68.08-1.003.1-4.602.283-7.072-1.927-7.072-1.927l2.063-9.55 10.801-.648Z" fill="#746DAE"/><path d="m52.077 87.382-1.72 4.32c-.346.046-.68.08-1.003.1-.988-6.34 2.594-8.353 2.594-8.353s.064 1.838.129 3.933Z" fill="#423B7D"/><path d="M48.762 79.442s5.334 14.696 6.748 16.518c1.415 1.823 8.799 9.535 8.799 9.535l1.432-1.621s-.814-3.377-2.218-6.16c-1.168-2.314-3.394-3.251-3.501-3.85-.683-3.944-2.649-15.232-2.649-15.232l-8.611.81ZM40.409 63.514s-2.605 7.327-3.13 7.923c-.525.596-5.793 4.52-5.793 4.52l.679 1.217s6.961-3.122 8.117-4.22c1.156-1.099 4.426-9.813 4.426-9.813l-4.3.373Z" fill="#FFB27D"/><path d="M31.487 75.956c-.343.152-.71.241-1.085.263-.54.01-1.71.61-1.548.812.162.202.555-.078.608.199.053.277-1.19 1.261-.925 1.542.264.281.836.33 1.82-.19.982-.519 1.808-1.407 1.808-1.407l-.678-1.219Z" fill="#FFB27D"/><path d="m49.258 80.86 3.223 10.446s6.094-.9 8.147-3.965c0 0-1.662-7.983-3.254-8.704-1.591-.721-8.116 2.223-8.116 2.223Z" fill="#746DAE"/><path d="M53.582 64.144s5.097 5.872 5.358 6.622c.26.75 1.084 7.267 1.084 7.267l1.393.009s.71-7.597.32-9.144c-.389-1.548-6.364-8.682-6.364-8.682l-1.791 3.928Z" fill="#FFB27D"/><path d="M51.686 48.694c.104-1.401-.434-2.342-1.204-3.208-.737-.832-1.58-.743-2.504-1.4-.87-.62-2.357-.887-3.48-.715-3.595.553-6.369 3.232-5.086 6.855.408 1.151.362 2.114 1.536 3.353 1.464 1.546 3.137 2.71 5.48 2.35 1.244-.19 2.289-.646 3.108-1.703.447-.566 1.187-.746 1.565-1.354.757-1.228.473-2.647.585-4.178Z" fill="#35488B"/><path d="m43.51 58.922 4.831 1.6.42-3.245s-.736-.988-1.264-2.71a11.99 11.99 0 0 1-.486-2.544l-3.363 2.43c.108.265.199.537.273.813.185.637.265 1.3.238 1.963-.04.612-.22 1.217-.65 1.693Z" fill="#FFB27D"/><path d="M58.097 78.53a1.324 1.324 0 0 0-.053-.21l-2.738-7.976-.136-4.195-.079-2.392-.18-5.461c-2.3-.757-4.33-1.04-6.15-1.02-.573.8-1.759 2.033-3.294 2.07-1.152.025-1.419-.536-1.5-1.182-1.595.456-2.847 1.788-2.847 1.788l-2.026 4.554s1.27 1.46 2.847 1.653l1.497 11.315c.084 1.173-.568 3.959.596 4.09 5.191.588 11.432-1.148 12.962-1.607.228-.07.352-.11.352-.11a1.23 1.23 0 0 0 .749-1.316Z" fill="#739AF0"/><path d="M52.331 73.375c.503 2.852 2.895 5.927 4.672 6.582.229-.07.353-.11.353-.11a1.23 1.23 0 0 0 .692-1.527l-2.738-7.976-.14-4.195-.054-.105s-3.678 2.293-2.785 7.33Z" fill="#4A75CB"/><path d="M44.16 57.229c2.067-.379 3.337-2.662 3.337-2.662l-3.575.701c.184.637.265 1.299.237 1.96Z" fill="#E8945B"/><path d="M43.767 56.005s4.673-.145 4.274-3.391c-.4-3.246-2.632-5.045-3.904-4.825-2.536.439-2.798 1.532-2.932 2.649-.135 1.117.417 5.664 2.562 5.567Z" fill="#FFB27D"/><path d="M44.707 53.955s-.038.419-1.053.498c0 0-.852.068-.89-.378 0-.002.774-.435 1.943-.12Z" fill="#fff"/><path d="M43.006 47.993s3.919-.605 3.431 2.225c-.306 1.783 1.621 1.756 1.621 1.756l.491-2.857-.894-2.03-4.65.906Z" fill="#35488B"/><path d="M60.023 78.034a3.15 3.15 0 0 1-.306 1.076c-.256.473-.31 1.788-.055 1.747.255-.04.206-.523.473-.432.268.09.513 1.656.888 1.564.374-.092.699-.568.73-1.678.031-1.11-.336-2.27-.336-2.27l-1.394-.007Z" fill="#FFB27D"/><path d="m48.762 57.277.879 1.237.851 1.2 4.565 6.423c.408-.733 3.784-2.612 3.784-2.612s-2.556-3.984-3.932-5.229c-.394-.358-1.07-.593-1.833-.748-.647-.125-1.301-.206-1.959-.244-1.278-.076-2.355-.027-2.355-.027Z" fill="#739AF0"/><path d="M43.14 102.1s1.545.424 4.568.216c0 0-.492 2.83-.177 3.537.315.706 1.218 2.711-.157 3.105-1.09.311-5.879.277-7.822.25a1.654 1.654 0 0 1-1.537-1.081c-.217-.605-.132-1.335 1.106-1.802l2.787-.746c1.595-.81 1.231-3.479 1.231-3.479Z" fill="#746DAE"/><path d="M47.139 110.402a.972.972 0 1 0-.749-1.795.972.972 0 0 0 .749 1.795Z" fill="#423B7D"/><path d="M47.44 109.619a.689.689 0 1 0-1.355-.248.689.689 0 0 0 1.355.248Z" fill="#746DAE"/><path d="M40.723 110.191a.972.972 0 1 0-1.374-1.375.972.972 0 0 0 1.374 1.375Z" fill="#423B7D"/><path d="M39.35 109.505a.687.687 0 1 1 1.374 0 .687.687 0 0 1-1.374 0ZM60.258 101.225s1.563-.359 4.127-1.972c0 0 .906 2.725 1.518 3.199.613.474 2.356 1.812 1.33 2.809-.812.79-5.047 3.028-6.771 3.922a1.656 1.656 0 0 1-1.865-.224c-.479-.432-.748-1.114.121-2.112l2.102-1.974c1.023-1.467-.562-3.648-.562-3.648Z" fill="#746DAE"/><path d="M66.1 106.494a.971.971 0 0 1 1.137-1.391.97.97 0 0 1 .579 1.387.978.978 0 0 1-.761.512.976.976 0 0 1-.955-.508Z" fill="#423B7D"/><path d="M66.352 106.357a.687.687 0 1 1 1.213-.646.687.687 0 0 1-1.213.646Z" fill="#746DAE"/><path d="M60.172 109.679a.974.974 0 0 1 1.138-1.392.973.973 0 1 1-1.138 1.392Z" fill="#423B7D"/><path d="M60.424 109.545a.688.688 0 1 1 1.215-.645.688.688 0 0 1-1.215.645Z" fill="#746DAE"/><path d="M93.298 21.268s8.344 14.58 6.67 19.61c-1.674 5.028-7.273 5.349-7.273 5.349l.603-24.959Z" fill="#F9DDBF"/><path d="M97.624 110.999H85.975c-.834-.566.222-6.1.222-6.1s3.178-1.206 3.727 1.247c.549 2.453 4.05 3.231 5.902 3.531 1.271.205 1.672.901 1.798 1.322ZM80.348 110.999H68.697c-.836-.566.22-6.1.22-6.1s3.18-1.206 3.73 1.247c.548 2.453 4.049 3.231 5.9 3.531 1.275.205 1.674.901 1.801 1.322Z" fill="#423B7D"/><path d="M94.491 54.548s-.524 6.528-1.14 14.384c-.836 10.665-3.097 37.112-3.097 37.112s-1.478 1.263-4.758.572c0 0-2.788-9.123-3.622-19.537l-.039-.514c-.774-10.601-1.981-32.923-1.981-32.923l14.637.906Z" fill="#746DAE"/><path d="M94.668 52.29s-.702 8.79-1.317 16.643L81.88 87.078l-.038-.514C81.068 75.963 79.86 53.64 79.86 53.64l14.807-1.351Z" fill="#423B7D"/><path d="M91.325 52.29s-8.319 20.712-10.978 28.556c-1.894 5.59-7.236 25.204-7.236 25.204s-2.323.707-4.276-.664c0 0-1.991-20.038 2.028-25.689 2.13-2.997.53-31.161 9.165-31.402 8.635-.242 11.297 3.995 11.297 3.995Z" fill="#746DAE"/><path d="M87.616 21.766a5.2 5.2 0 0 1-3.585.483 7.44 7.44 0 0 1-2.433-1.027 7.254 7.254 0 0 1-.979-.738s.043-.062.11-.185c.376-.642 1.513-2.948 1.008-6.655-.007-.049.36.02.915.152 1.65.39 4.969 1.327 5.116 1.373h.005s.04.78.177 2.177c.011.123.023.252.038.385.016.164.033.339.054.517.158 1.455-.426 3.518-.426 3.518Z" fill="#FFB27D"/><path d="M87.954 17.35c-2.464.565-6.141-3.073-6.141-3.073a3.85 3.85 0 0 1 .843-.478c1.65.39 4.968 1.328 5.116 1.373h.005s.04.779.177 2.177Z" fill="#ED975D"/><path d="M95.792 48.803c-.18 2.374-.68 4.072-1.78 4.072 0 0-4.888 1.722-10.733 1.77-1.14.01-2.758-.213-4.099-.442a63.899 63.899 0 0 1-2.454-.466c-1.175-.27-2.47-.996-2.297-2.336.092-.713.16-1.628.205-2.688 0-.068 0-.136.009-.205.128-3.098.11-7.376.123-11.468.012-2.512.036-4.955.121-7.015 0 0-1.153-8.095.126-9.423 1.5-1.549 5.904-2.03 6.18-1.97.083-.018.167-.039.25-.053 0 0 3.83 2.09 6.617.526 0 0 4.065.925 5.235 2.162.403.425 2.013 3.038 2.058 5.907.06 4.001-.096 8.546-.096 8.547.042.65.111 1.487.188 2.443.082 1.02.173 2.171.25 3.37.037.606.072 1.218.101 1.84.09 1.907.12 3.823-.004 5.429Z" fill="#F9DDBF"/><path d="M81.215 18.636s4.151 4.281 7.118 3.405c0 0 .395-.579-.941-.764-1.337-.184-2.78-.11-6.177-2.64Z" fill="#F2CCAA"/><path d="M88.79 14.974c-.75.252-1.521.432-2.305.538-1.889.255-4.373.105-5.153-2.181-1.314-3.847-2.994-6.154.874-7.725 2.07-.841 3.396-.885 4.295-.564.782.276 1.243.83 1.591 1.377.752 1.177 2.263 7.882.699 8.555Z" fill="#FFB27D"/><path d="M88.391 4.096c.874.212 1.267 1.588.435 2.16-1.49 1.027-3.313.625-3.983.923-.962.427-1.136 2.04-1.152 2.553-.017.512-.085.946-1.39.638a.634.634 0 0 0-.475.029c-.543.322.15 1.88.36 2.213 0 0 .299 1.116-.368 1.66-.08.065-1.391.637-4.549-4.195-.497-.76-.97-2.468-.203-4.114.766-1.645 3.133-3.682 5.974-3.683 2.244.004 3.499 1.366 5.351 1.816Z" fill="#163560"/><path d="M88.82 12.491s.08.498-1.077.895c0 0-.972.332-1.15-.177 0 0 .773-.735 2.227-.718Z" fill="#fff"/><path d="M84.629 45.97s3.122 2.06 4.327 2.191c.82.09 4.058-.042 4.076-.451.026-.58-1.978-1.19-2.497-1.422-.519-.232-.927-.504-.92-.725.008-.221 2.009.518 1.792.029-.217-.49-2.067-1.339-2.514-1.42-.447-.083-1.89.406-2.45.148-.562-.26-1.814 1.65-1.814 1.65Z" fill="#ED975D"/><path d="M86.004 44.162c.415.775-1.371 1.807-1.371 1.807s-4.935 2.347-9.994 2.745c0-.067 0-.136.008-.205.129-3.098.111-7.376.124-11.468 0 .003 10.548 5.837 11.233 7.121Z" fill="#F2CCAA"/><path d="M76.099 19.851s-2.138.903-4.68 5.652c-2.54 4.748-4.945 14.803-3.915 16.439 1.03 1.635 9.708 5.378 17.271 4.38 0 0 1.881-1.71 1.498-2.368 0 0-12.683-5.17-12.69-5.788-.008-.619 4.524-5.946 4.782-8.598.257-2.652-2.266-9.717-2.266-9.717Z" fill="#F9DDBF"/><path d="M88.645 31.862s-.15 1.628 0 2.05c.15.42 4.47.515 4.58.12.109-.395.27-1.597 0-1.808-.272-.211-4.58-.362-4.58-.362Z" fill="#FFB27D"/><path d="M91.497 46.967h-.971a4.385 4.385 0 0 1-4.372-4.371v-4.188c0-2.406.053-4.537 2.638-5.335l4.544.343c3.926 1.084 2.533 2.586 2.533 4.992v4.188a4.385 4.385 0 0 1-4.372 4.371Z" fill="#FFB27D"/><path d="M93.232 33.357s1.071.274 1.837-.148c1.106-.609 2.425-.95 2.656-1.23.391-.47 2.296-2.412 2.296-2.412l.917.611s-.886 3.586-1.597 4.227c-.712.64-1.992 2.914-4.148 3.236-1.12.167-1.96-4.284-1.96-4.284ZM100.024 29.568s-.332-.902-.058-1.02c.274-.119.443.537.443.537s.719-1.491 1.449-.847c.73.644-.913 1.94-.913 1.94l-.921-.61ZM88.626 33.121s-1.071.276-1.837-.147c-1.106-.61-2.425-.95-2.655-1.23-.39-.47-2.296-2.412-2.296-2.412l-.916.611s.885 3.586 1.596 4.227c.712.64 1.992 2.914 4.148 3.236 1.12.167 1.96-4.285 1.96-4.285ZM81.838 29.332s.332-.902.058-1.02c-.275-.119-.437.538-.437.538s-.72-1.492-1.45-.847.913 1.94.913 1.94l.916-.611ZM95.103 40.877s2.545 1.115 3.885 1.51c1.25.367 2.797 1.245 2.829 1.387.032.141.048 1.383-.586 1.626-.634.244-7.513 1.227-8.536.827 0 0 .735-4.933 2.408-5.35Z" fill="#FFB27D"/><path d="M101.72 41.19s-1.217.086-1.925.975a.732.732 0 0 1-.809.221s-1.908 1.217-.692 3.52c0 0 2.57-.16 2.936-.506.366-.345.49-4.21.49-4.21Z" fill="#fff"/><path d="M101.232 45.4s1.285-.303 1.516-1.588c.231-1.286-.008-2.501-.853-2.608-.845-.108-1.38.35-1.612.963-.232.613-.913 3.295.949 3.233Z" fill="#AFCDFB"/><path d="M91.356 23.187s2.564-.11 3.541 2.323c.977 2.434 1.17 6.629-1.098 7.29-1.549.45-3.208.132-4.702-.443-.788-.302-1.056-.966-1.507-1.492-2.89-3.37-1.957-7.377 3.766-7.678Z" fill="#FFB27D"/><path d="M86.156 40.27s5.04 1.082 9.709 0c0 0 .533.911.602 1.182.147.578-.117 1.525-1.155 2.731-1.528 1.77-6.75 3.098-8.577 1.962-1.603-.994-1.965-4.378-.579-5.874Z" fill="#fff"/><path d="M91.793 42.417c.937.327 2.295 1.085 3.516 1.77 1.139.636 2.452 1.834 2.452 1.979 0 .145-.259 1.36-.93 1.457-.672.097-7.6-.466-8.508-1.082a1.77 1.77 0 0 1-1.184-1.498c-.197-1.746.659-4.017 4.654-2.626Z" fill="#FFB27D"/><path d="M98.234 43.621s-1.201-.185-2.093.526a.735.735 0 0 1-.838.036s-2.13.766-1.453 3.278c0 0 2.544.413 2.975.157.43-.255 1.41-3.997 1.41-3.997Z" fill="#fff"/><path d="M96.83 47.619s1.32-.013 1.829-1.218c.508-1.204.546-2.44-.255-2.731-.801-.291-1.423.036-1.785.582-.361.545-1.618 3.015.21 3.367Z" fill="#AFCDFB"/><path d="M92.383 30.526s.518.61 1.197.388c.68-.221.785-.96.785-.96a4.394 4.394 0 0 0-1.982.572Z" fill="#fff"/><path d="M89.13 28.967s-.995-.872-1.31-.24c-.314.633.407 1.56.996 1.57.59.012.705-1.047.314-1.33Z" fill="#ED975D"/><path d="M89.275 28.937s-.759-.664-.995-.183c-.237.481.31 1.19.759 1.2.448.008.535-.804.236-1.017Z" fill="#FFB27D"/><path d="M88.382 24.466s1.231 1.673 3.817 1.61c0 0 1.017-.145 1.447-.804 0 0-.816.332-1.247.19 0 0 2.434-.373 2.408-1.025-.027-.652-1.31-1.383-2.244-1.495-.744-.088-2.987-.074-3.671.299-.684.373-.7 1.007-.51 1.225Z" fill="#FF9843"/><path d="M89.48 23.054s-2.822.46-3.324 2.709c-.201.904.221 2.224.221 2.224s-.057-2.677 2.2-2.79c1.642-.08 2.717-.248 2.717-.248l-1.813-1.895Z" fill="#FF9843"/><path d="M89.885 36.539a.17.17 0 1 1-.338 0 .17.17 0 0 1 .338 0ZM94.13 36.539a.17.17 0 0 1-.203.168.17.17 0 0 1-.062-.309.171.171 0 0 1 .252.076.17.17 0 0 1 .013.065ZM97.686 39.746a1.748 1.748 0 0 0-.962-1.14c-.603-.28-1.458-.654-1.848-.725-.636-.116-1.935-.885-2.041-.483-.106.401.917.857.923 1.294.005.437-2.877 1.51-2.797 1.963.08.453.897 1.47 2.012 1.198 1.115-.27 3.885-.92 4.524-1.1.342-.095.309-.566.19-1.007Z" fill="#ED975D"/></svg>