<svg width="94" height="119" fill="none" xmlns="http://www.w3.org/2000/svg"><path d="M54.224 61.303c-.02-1.105-.872-2.992.81-4.784 1.19-1.286 2.241-2.732 2.74-3.438.182-.287 2.216 1.398 2.172 1.466-.335.5-1.87 3.045-2.092 4.464-.243 1.6-2.963 3.35-2.963 3.35s-.661.044-.667-1.058Z" fill="#F4A671"/><path d="m56.723 54.507 3.226.042s5.046-8.032 5.2-10.58c.15-2.435 4.998-13.085-.679-19.735a10.54 10.54 0 0 0-.868-.91l-.028.048c-.115.194-.566 1.015-1.095 2.83-.827 2.837-1.85 8.104-2.092 17.2 0 0-2.245 7.786-3.664 11.105Z" fill="#F4A671"/><path d="M66.79 11.86s.348.949-.167 1.32c-.514.373 1.306 2.08 1.656 3.512.35 1.432-.086 2.194-.086 2.194s.052-.867-.264-1.294c0 0 .343.985-.222 1.717-.566.732-.232 1.103-.232 1.103s-1.782.03-2.215-1.186c0 0 .105.578.234.79 0 0-1.74-.613-2.193-1.817-.454-1.203.394-2.612.923-2.802.528-.19 1.387-1.628 1.229-2.017-.159-.39 1.336-1.52 1.336-1.52Z" fill="#2C3A64"/><path d="m66.38 114.057 2.089.784s9.069-12.674 10.186-23.825c.198-1.99.132-3.92-.3-5.7 0 0 .086-.51.245-1.412.072-.421.16-.928.257-1.509.295-1.702.701-4.031 1.164-6.683 1.067-6.102 2.45-13.904 3.523-19.64l-.561-.181-6.088-1.979-1.251-4.026-4.54-1.202s-1.012 1.996-1.917 11.424a67.91 67.91 0 0 0-.432 4.079 81.3 81.3 0 0 0 .428 16.514c.208 1.64.473 3.33.796 5.07.239 1.274.274 3.01.172 5.005-.45 9.115-3.77 23.281-3.77 23.281Z" fill="#FF685B"/><path d="M68.758 64.187 78.6 83.904c.072-.421.16-.928.257-1.509.296-1.702.701-4.031 1.165-6.683 1.067-6.102 2.45-13.904 3.523-19.639l-.562-.182-6.088-1.979-1.251-4.026-5.414-1.622s-.131 2.416-1.036 11.844c-.17 1.236-.322 2.6-.436 4.079Z" fill="#CD584D"/><path d="m62.252 5.914 9.83 8.017s.61-1.91 1.637-1.713c1.333.258 3.66-3.606 1.798-7.46-.122-.253-1.635-4.07-6.477-4.55-6.225.483-6.788 5.706-6.788 5.706Z" fill="#2C3A64"/><path d="M65.795 27.334c1.199.56 2.645.941 4.397 1.035 6.562.363 8.05-5.436 8.323-9.282a5.461 5.461 0 0 0-2.252-.286c-.466.025-.951.073-1.352.123-.802-.423-2.245-2.476-3.078-5.909l-.283.133-4.736 2.243s.504 1.554.874 3.039c.29 1.163.499 2.286.325 2.6-.373.153-.6.25-.6.25v.005a32.92 32.92 0 0 0-1.618 6.049Z" fill="#FFB27D"/><path d="M64.153 31.672c.05.132.105.26.164.394 1.662 3.607 6.18 15.525 6.18 15.525-.44 2.687 18.595 2.496 18.649.05.579-2.086-1.427-5.186-3.195-7.409a37.73 37.73 0 0 0-1.213-1.44 5.967 5.967 0 0 1-.62-.844 5.892 5.892 0 0 1-.84-2.466c-.244-2.33-.261-4.567-.257-6.386 0-.881.01-1.663 0-2.31-.36-.27-.71-.518-1.036-.756-.498-.365-.942-.708-1.26-1.055-.358-.378-.581-.764-.606-1.2a6.603 6.603 0 0 1 .025-1.007 9.23 9.23 0 0 1 .06-.479c.257-1.678.952-3.2.952-3.2-1.763-.718-4.893-.291-4.893-.291v.463c.011 1.152 0 4.111-.367 4.672-.457.696-8.846 3.754-9.29 2.806-.436-.93.759-5.292.804-5.456a.03.03 0 0 0 0-.006l-.263.105c-.428.173-.796.377-1.152.507-2.282.84-2.497 1.604-2.497 1.604 1.7 1.109-.654 4.681.655 8.18Z" fill="#B84C42"/><path d="M66.814 15.397s.504 1.554.875 3.04c2.768-.777 3.609-3.71 3.861-5.282l-4.736 2.242Z" fill="#ED985F"/><path d="M66.23 17.037s6.623-1.545 5.605-5.685c-1.019-4.14-.85-7.129-5.12-6.318-4.272.811-4.701 2.597-4.695 4.064.006 1.467 2.46 8.234 4.21 7.939Z" fill="#FFB27D"/><path d="M61.648 6.744c.712-1.501 1.55-1.42 2.075-1.155 3.11-2.9 6.765-1.064 6.765-1.064 1.175 2.86 3.116 4.561 3.116 4.561s-1.018 1.05-3.966 1.027c-.901-.008-1.806-.424-2.63-.998a15.851 15.851 0 0 0 3.453 2.594c-3.692-.71-6.166-5.016-6.423-5.474-.313.465-.91 1.456-.961 2.292-.069 1.136.32 3.344-.326 3.427.006 0-2.17-2.96-1.103-5.21Z" fill="#2C3A64"/><path d="M59.846 117.92H70.36s.394-1.69-.297-2.84c-.61-1.017-.56-1.64-.108-2.478-.477.196-.909.414-1.587.375-.524-.03-1.105-.404-1.592-.69-.452.517-2.362 2.866-2.969 3.305-.687.504-3.752.322-3.962 2.328Z" fill="#233862"/><path d="M78.617 41.15c2.746-.197 5.36-.44 7.334-.918a37.886 37.886 0 0 0-1.213-1.44 5.972 5.972 0 0 1-.62-.844 5.893 5.893 0 0 1-.84-2.466c-.244-2.33-.261-4.567-.257-6.385-2.398-2.702-4.404-4.897-4.404-4.897s-4.463 4.12-5.154 8.226c-.691 4.106-1.996 9.233 5.154 8.723Z" fill="#AA3E39"/><path d="M77.51 18.695s-3.24 3.87-2.546 9.676h-1.343s-.76-4.06 2.641-9.568c0 0 .444-.064.588-.076.168-.014.66-.032.66-.032ZM65.828 31.447l1.304-.323c-1.752-4.667-.41-8.665.022-9.738-.428.172-.811.342-1.152.507-1.808 5.947-.174 9.554-.174 9.554Z" fill="#746DAE"/><path d="M65.26 29.102s6.466-1.697 8.29-2.169c1.825-.472 1.97.614 1.97.614s.257 3.538.282 3.9c.421 5.553 8.316 6.502 8.316 6.502s2.071 2.37 3.82 4.886c2.998 4.315 2.599 11.801 2.599 11.801.068.96.071 1.922.01 2.881-.237 3.832-.67 20.117-1.123 24.938a144.454 144.454 0 0 1-.364 3.491c-.011.15.028.3.111.426a22.741 22.741 0 0 1 1.668 3.538c4.438 11.916-.685 26.589-.685 26.589l-1.329-.539s-2.912-16.33-5.282-23.545c-.402-1.223-.787-2.185-1.14-2.761-1.029-1.674-1.985-4.41-2.853-7.664-1.639-6.152-2.959-14.152-3.836-20.332-.121.006-1.084-8.294-4.247-12.114l-1.24-1.278-3.927-9.723s-1.084-6.463-1.412-7.549c-.328-1.085.373-1.892.373-1.892Z" fill="#FF685B"/><path d="M74.864 27.877a.57.57 0 0 0-.347-.524.56.56 0 0 0-.768.413.571.571 0 0 0 .24.582.559.559 0 0 0 .71-.07.57.57 0 0 0 .165-.4Z" fill="#AA3E39"/><path d="M74.764 27.878a.57.57 0 0 0-.347-.525.559.559 0 0 0-.768.413.571.571 0 0 0 .24.583.559.559 0 0 0 .71-.071.57.57 0 0 0 .165-.4Z" fill="#B84C42"/><path d="M74.533 27.767a.086.086 0 1 0-.167.045.086.086 0 0 0 .167-.045ZM74.025 27.93a.086.086 0 0 0-.124-.055.086.086 0 1 0 .124.055Z" fill="#2B478B"/><path d="M66.762 29.714a.57.57 0 0 0-.347-.524.56.56 0 0 0-.767.413.57.57 0 0 0 .239.582.56.56 0 0 0 .71-.07.57.57 0 0 0 .165-.4Z" fill="#AA3E39"/><path d="M66.662 29.714a.57.57 0 0 0-.346-.524.56.56 0 0 0-.768.413.57.57 0 0 0 .24.582.56.56 0 0 0 .71-.07.57.57 0 0 0 .164-.4Z" fill="#B84C42"/><path d="M66.433 29.604a.087.087 0 0 0-.074-.063.087.087 0 0 0-.095.096.086.086 0 0 0 .115.07.086.086 0 0 0 .054-.103ZM65.923 29.766a.087.087 0 0 0-.124-.053.086.086 0 0 0-.023.133.086.086 0 0 0 .095.023.081.081 0 0 0 .052-.103Z" fill="#2B478B"/><path d="M75.644 9.875s-.436 1.096-.166 1.321c-.514.372 1.305 2.079 1.657 3.512.352 1.433-.085 2.194-.085 2.194s.053-.867-.264-1.294c0 0 .343.985-.222 1.716-.564.731-.232 1.104-.232 1.104s-1.782.03-2.215-1.186c0 0 .105.578.234.79 0 0-1.74-.613-2.193-1.816-.453-1.204.394-2.612.922-2.802.529-.19 1.388-1.628 1.23-2.018-.157-.389 1.334-1.52 1.334-1.52Z" fill="#2C3A64"/><path d="M62.478 26.202c1.503.222 2.111 1.121 2.111 1.121s.13-1.904-.12-3.087c-.085-.413-.219-.74-.418-.863-.09-.057-.236-.057-.417-.015-.02 0-.04.01-.061.017-.115.19-.566 1.012-1.095 2.827Z" fill="#B84C42"/><path d="M41.452 61.525c2.675.14 4.503-4.042 5.63-4.096.184-.009.536.043.986.11a19.711 19.711 0 0 0-2.426 6.359c-1.604 8.067 1.776 15.552 7.548 16.715 5.612 1.133 11.423-4.134 13.21-11.847.05-.216.097-.434.14-.654.453-2.227.52-4.517.195-6.767v-.019c.184.044.365.101.54.173 1.02.49 1.108 5.056 3.631 5.964 2.524.908 4.223-3.964 1.22-7.758-1.832-2.314-5.078-3.43-7.332-3.95a10.83 10.83 0 0 0-1.607-2.058l-.068-.069a6.593 6.593 0 0 0 2.689-2.74 6.66 6.66 0 0 0 .716-3.786h.017a3.324 3.324 0 0 0 1.347-.793 3.38 3.38 0 0 0 .419-4.35 3.313 3.313 0 0 0-5.4-.069 6.563 6.563 0 0 0-3.13-.68 3.365 3.365 0 0 0-.721-1.361 3.307 3.307 0 0 0-4.22-.656c-.444.27-.819.64-1.095 1.08a3.372 3.372 0 0 0 .563 4.266 6.662 6.662 0 0 0 .406 7.184c-.973.345-1.89.832-2.723 1.446-2.26-.436-5.957-.79-8.694.726-4.225 2.333-4.516 7.488-1.841 7.63Z" fill="#746DAE"/><path d="M62.56 76.637c3.21-3.83 3.94-8.305 3.983-8.525.453-2.227.518-4.517.194-6.767-.331-.389-.77-.678-1.272-.439-1.105.527-.93 5.86-2.617 7.089-1.246.912-1.966 8.793-.287 8.642Z" fill="#423B7D"/><path d="M59.986 52.846c1.039.379 2.109.662 3.198.848-.023-.023-.044-.046-.068-.068a6.592 6.592 0 0 0 2.688-2.741 6.659 6.659 0 0 0 .717-3.786h.016c-.066-.027-.15.014-.261.172-.421.605-2.694 5.464-6.29 4.908 0-.003-.94.322 0 .667Z" fill="#233862"/><path d="M58.28 41.629s-.842-1.583-2.092-1.172c-1.25.41-1.425 2.226-.61 2.724 0 .001 1.21-1.127 2.703-1.552ZM64.156 42.555s1.803-.836 2.616.13c.814.967-.813 2.2-.813 2.2s-.785-1.64-1.803-2.33Z" fill="#423B7D"/><path d="m63.418 51.437.58 2.167s2.04-.75 3.092-1.15c.315-.123.493-.203.493-.203.84-.332 1.84-.756 2.93-1.213h.015c1.86-.824 3.94-1.785 5.659-2.745 1.209-.69 2.242-1.38 2.916-2.003a2.08 2.08 0 0 0 .19-.197c1.58-1.663 3.04-5.973 3.966-10.478.129-.622.243-1.24.36-1.845.401-2.243.652-4.422.705-6.276.042-1.107.023-2.107-.086-2.913a6.867 6.867 0 0 0-.127-.801c-.846-4.54-3.2-4.759-3.2-4.759-.05-.007-.099-.015-.164-.018-.4.008-.757.345-1.084.941-.413.738-.785 1.89-1.133 3.264-.523 2.182-.988 4.97-1.392 7.728-.227 1.513-.438 3.02-.668 4.425-.121.847-.25 1.647-.376 2.382-.246 1.404-.49 2.548-.759 3.293-.17.484-.775 1.225-1.6 2.087-1.432 1.507-3.58 3.403-5.467 4.975-.78.66-1.524 1.265-2.141 1.765-.994.811-2.709 1.574-2.709 1.574Z" fill="#FFB27D"/><path d="M78.266 23.236c2.997-1.418 5.848.536 5.848.536-.867-4.606-3.334-4.81-3.334-4.81-1.016-.21-1.827 1.59-2.514 4.274Z" fill="#B84C42"/><path d="M64.798 50.955s-1.24.497-1.944.623c-.705.125-1.792-.227-2.686.36-.893.587-1.53.978-1.53.978s-.217.333.258.468c.27.077 1.64-.796 1.699-.563.058.233-.871.754-1.412.783-.54.03-1.525.507-1.525.863 0 .357 1.596 1.186 2.528 1.127.932-.059 2.848-1.714 3.332-1.832.485-.117 2.523-.937 2.523-.937l-1.243-1.87Z" fill="#FFB27D"/><path d="M82.428 117.921h10.516s.252-1.615-.297-2.84c-.527-1.175-1.449-1.758-1.251-3.18-.67.69-1.587 1.361-3.108 1.155-.186.304-1.274 2.089-1.897 2.539-.687.501-3.752.321-3.963 2.326Z" fill="#233862"/><path d="M62.238 116.353H42.526a3.884 3.884 0 0 1-2.758-1.151 3.93 3.93 0 0 1-1.143-2.779V78.286H66.14v34.137a3.956 3.956 0 0 1-1.143 2.779 3.89 3.89 0 0 1-2.758 1.151Z" fill="#AFCDFB"/><path d="M42.668 78.286v33.25c0 .413.163.809.452 1.101.29.292.683.456 1.093.456h21.866a3.937 3.937 0 0 1-1.331 2.336 3.88 3.88 0 0 1-2.512.924H42.523a3.886 3.886 0 0 1-2.758-1.151 3.946 3.946 0 0 1-1.142-2.779V78.286h4.045Z" fill="#81ACEA"/><path d="m49.422 101.06.085-.029.072.053-.001-.089.073-.051-.086-.027-.026-.086-.051.074-.09-.001.053.071-.029.085Z" fill="#4A75CB"/><path d="m49.038 103.057.877-1.051 1.357.132-.722-1.166.543-1.26-1.323.332-1.021-.91-.096 1.37-1.175.698 1.264.515.296 1.34Z" fill="#4A75CB"/><path d="m60.887 84.231.532-.799.957-.012-.591-.758.285-.92-.898.332-.78-.557.036.963-.768.576.92.263.307.912Z" fill="#fff"/><path d="m45.603 90.395 1.708-.313 1.225 1.24.231-1.735 1.55-.79-1.566-.758-.268-1.728-1.198 1.266-1.715-.278.825 1.54-.792 1.556ZM60.607 108.349l1.377-.415 1.12.907.034-1.448 1.203-.794-1.358-.479-.377-1.398-.872 1.152-1.435-.07.818 1.191-.51 1.354Z" fill="#4A75CB"/><path d="m42.258 80.707.352-.286.433.13-.161-.426.256-.376-.452.024-.275-.362-.118.44-.426.152.379.25.012.454Z" fill="#fff"/><path d="m44.148 111.514 1.208-.536 1.122.7-.13-1.323 1.006-.86-1.29-.282-.5-1.231-.665 1.149-1.317.099.879.992-.313 1.292Z" fill="#4A75CB"/><path d="m55.467 113.993.239-.936.9-.331-.809-.519-.034-.966-.74.616-.923-.265.353.898-.535.802.957-.059.592.76Z" fill="#fff"/><path d="m40.572 94.349.7-.132.504.505.091-.711.633-.328-.643-.306-.113-.708-.489.52-.702-.109.34.629-.32.64ZM63.608 96.842l.646-1.248 1.387-.173-.979-1.005.267-1.382-1.252.627-1.222-.683.206 1.394-1.022.96 1.378.233.591 1.277ZM54.549 90.953l.582.538-.11.788.688-.391.71.349-.158-.78.55-.573-.786-.09-.37-.704-.328.725-.778.138Z" fill="#4A75CB"/><path d="m40.671 104.37.32-.125.283.194-.018-.345.27-.211-.33-.089-.117-.325-.186.291-.342.01.216.268-.096.332ZM57.304 100.762l.32-.125.283.194-.018-.344.27-.212-.331-.088-.117-.325-.185.29-.342.01.216.269-.096.331Z" fill="#fff"/><path d="M51.043 80.756a1.037 1.037 0 0 0 .632.952 1.015 1.015 0 0 0 1.115-.223 1.033 1.033 0 0 0 .221-1.124 1.03 1.03 0 0 0-.945-.636 1.017 1.017 0 0 0-.945.636c-.052.125-.078.26-.078.395ZM39.527 80.756a1.037 1.037 0 0 0 .632.952 1.015 1.015 0 0 0 1.115-.223 1.034 1.034 0 0 0-.723-1.76 1.017 1.017 0 0 0-.946.636c-.051.125-.078.26-.078.395Z" fill="#233862"/><path d="M46.045 85.847c-1.682 0-3.05-.438-4.064-1.3-1.001-.852-1.662-2.12-1.964-3.768a.394.394 0 0 1 .312-.447.385.385 0 0 1 .45.304c.544 2.98 2.27 4.43 5.266 4.43 2.12 0 3.716-.735 4.744-2.183.47-.663.788-1.423.932-2.225a.391.391 0 0 1 .433-.336.393.393 0 0 1 .337.434 6.213 6.213 0 0 1-1.047 2.552c-.814 1.158-2.41 2.54-5.4 2.54Z" fill="#2B478B"/><path d="M22.133 61.997c-.99.426-.675 3.145.778 5.222 1.437 2.063 2.787 5.04 3.988 6.724.882 1.265 4.164 2.535 6.188 3.51.43.2.848.427 1.25.68.382 1.228 1.649 1.13 2.075 2.265.49 1.347 1.238.924 1.238.924a4.901 4.901 0 0 0 .253-2.166c-.067-.425-1.307-1.257-2.082-1.747a23.682 23.682 0 0 0-1.385-1.621c-1.476-1.62-3.378-3.447-4.31-4.177-1.087-.85-2.352-6.445-3.616-7.948-2.248-2.674-4.377-1.666-4.377-1.666ZM30.447 82.086l-5.844 32.686-2.022.135s-1.59-14.235-.227-19.149c1.363-4.913-2.352-11.127-1.307-15.389 1.046-4.261 9.4 1.717 9.4 1.717Z" fill="#ED985F"/><path d="m23.722 64.03 5.102-.837c.243-.835.312-1.983.316-2.997 0-1.26-.096-2.315-.096-2.315l-4.113-.4-1.83-.176c1.001 1.928.62 6.725.62 6.725Z" fill="#FFB27D"/><path d="M23.57 58.316s2.726 2.342 5.57 1.88c0-1.26-.096-2.315-.096-2.315l-4.113-.4-1.36.835Z" fill="#ED985F"/><path d="M26.554 90.138c1.033 2.896 1.96 5.844 1.496 8.262-.137.73-.224 1.467-.262 2.209-.037.691-.04 1.394-.011 2.1.226 5.698 2.38 11.506 2.713 12.373l.044.112 1.791-.191.77-34.296s-8.18-3.33-8.635 1.036c-.238 2.256.988 5.295 2.094 8.395Z" fill="#FFB27D"/><path d="M21.666 92.081s.522.077 1.298.16c1.457.162 3.806.352 5.258.127.691-.106 1.08-1.257 1.262-2.808.405-3.422-.2-8.791-.749-9.03-.799-.344-7.865-.052-7.865-.052s-1.542 3.848.796 11.603Z" fill="#746DAE"/><path d="M22.85 92.242c1.457.161 3.806.351 5.258.126.691-.106-.953-7.48-2.613-9.19-.546-.563-2.908-1.149-2.908-1.149s-1.166 4.897.263 10.213Z" fill="#423B7D"/><path d="M33.123 80.594s1.52 6.778 1.293 12.14c0 0-3.46.688-6.994 0 0 0-5.853-8.579-5.36-11.336.495-2.757 9.579-1.681 11.061-.804Z" fill="#746DAE"/><path d="M30.345 57.055s-4.756 3.8-7.059.779c-2.303-3.022-4.468-4.564-1.528-7.12 2.939-2.555 4.415-1.862 5.427-1.043 1.012.82 4.338 6.318 3.16 7.384Z" fill="#FFB27D"/><path d="M17.557 51.85a1.03 1.03 0 0 1 .567.006v-.006c-.384-.716-.097-1.825-.097-1.825-.096.609.448 1.324.448 1.324.032-2.254 5.566-3.65 6.077-3.793.511-.143.449-1 .449-1 1.055.213 2.177 1.574 2.142 2.895-.035 1.322-1.119 3.861-1.823 3.9-.703.039-.384.608.096 1.395s-.144 2.926-1.007 3.677c-.697.606-1.061.1-1.469-.123a1.184 1.184 0 0 0-.321-.124c-1.614-.364-3.293-1.97-4.128-4.02a5.552 5.552 0 0 1-.377-2.039 2.824 2.824 0 0 0-.557-.267Z" fill="#423B7D"/><path d="M27.775 102.709c.227 5.698 2.38 11.506 2.713 12.373l1.336-.079c-.175-.23-2.794-12.121-4.048-12.293v-.001Z" fill="#ED985F"/><path d="M22.302 117.16h1.132c.379-.052.658-.151 1.045-.195.59-.07.861.146.914.195a.05.05 0 0 1 .01.011h4.8c.12-.154.005-.51-.11-.771a.66.66 0 0 0-.448-.366c-.51-.132-1.512-.249-2.43-.99-.518-.416-2.497-1.53-2.497-1.53h-.01c-.044 0-.25.058-1.15.735-.466.351-1.259-.494-1.259-.494a1.039 1.039 0 0 0-.261.315.962.962 0 0 0-.103.656c.071.385-.16 1.101-.344 1.586-.112.293-.206.501-.206.501s-.055.239.917.347Z" fill="#739CF3"/><path d="M22.04 114.067c.27.169.839.503 1.218.547.51.059 1.464-1.1 1.464-1.1h-.01c-.044 0-.252.058-1.151.735-.465.351-1.259-.494-1.259-.494a1.052 1.052 0 0 0-.263.312ZM22.3 117.16h1.133c.379-.052.658-.151 1.045-.195.59-.07.861.146.915.195a.05.05 0 0 1 .01.011h4.799c.121-.154.005-.51-.109-.771-.145-.116-.186.501-.266.599-.08.098-3.92.036-4.137-.107-.216-.143-.885-.395-1.811-.198-.807.176-1.994-.268-2.288-.385-.112.293-.206.501-.206.501s-.055.242.916.35Z" fill="#415DA5"/><path d="M30.022 117.183h1.132c.378-.053.658-.151 1.045-.195.59-.07.86.146.915.195l.01.01h4.8c.12-.154 0-.509-.11-.771a.66.66 0 0 0-.449-.366c-.509-.131-1.512-.248-2.43-.989-.517-.416-2.497-1.53-2.497-1.53h-.01c-.044 0-.25.057-1.15.735-.466.351-1.26-.494-1.26-.494a1.021 1.021 0 0 0-.26.315.959.959 0 0 0-.104.656c.072.385-.16 1.101-.343 1.585-.113.294-.207.502-.207.502s-.054.238.918.347Z" fill="#739CF3"/><path d="M29.756 114.09c.269.169.839.503 1.22.547.509.059 1.462-1.1 1.462-1.1h-.011c-.044 0-.25.057-1.15.734-.466.352-1.259-.493-1.259-.493a1.02 1.02 0 0 0-.262.312ZM30.022 117.183h1.133c.377-.053.657-.151 1.045-.195.59-.07.86.146.914.195l.01.01h4.8c.12-.154 0-.509-.11-.771-.145-.115-.186.502-.267.6-.08.098-3.915.036-4.136-.107-.221-.143-.886-.395-1.811-.199-.806.176-1.994-.263-2.288-.385-.112.294-.206.502-.206.502s-.056.241.916.35Z" fill="#415DA5"/><path d="M20.733 80.857s3.587 1.478 9.15.527a24.332 24.332 0 0 0 3.24-.79l-.718-13.017-.251-6.093s-2.014-.747-2.944-.804c0 0-3.897.469-5.407.067 0 0-1.829.776-2.537 1.78-.708 1.005-1.862 10.52-.533 18.33Z" fill="#F1A34F"/><path d="M29.92 81.39c1.017-.204 2.066-.38 3.204-.797l-.755-14.968-2.273-.3s-1.957 9.71-.175 16.065Z" fill="#DD7F30"/><path d="M28.905 66.63c.423 1.004 3.127.73 5.196-.703.181-.12.363-.243.559-.365 2.024-1.277 4.651-2.465 6.192-3.545 1.45-1.005 2.975-5.19 4.006-6.985.081-.153.172-.3.272-.44 1.208-.38 1.255-.797 2.37-1.25l.044-.019c1.113-.478.876-2.144-.325-2.292a4.524 4.524 0 0 0-1.017-.014c-.435.061-1.283 1.293-1.766 2.07-.333.258-.74.578-1.164.928-1.721 1.506-3.88 3.698-4.681 4.717-.62.776-3.67 1.613-5.906 2.465-.87.351-1.63.702-2.054 1.053-2.693 2.218-1.726 4.38-1.726 4.38Z" fill="#FFB27D"/><path d="M28.805 66.648c.423 1.004 2.961.955 5.297-.719.174-.127.362-.243.558-.365-2.13-1.598-2.084-3.607-1.979-4.368-.87.351-1.63.703-2.053 1.053-2.689 2.219-1.823 4.399-1.823 4.399Z" fill="#F1A34F"/><path d="M.254 111.609c-.002.692.103 1.38.31 2.04l.03.092c.3.914.79 1.754 1.438 2.463a6.739 6.739 0 0 0 2.315 1.649 6.693 6.693 0 0 0 5.544-.111 6.778 6.778 0 0 0 2.799-2.508 6.83 6.83 0 0 0-.021-7.287 6.754 6.754 0 0 0-2.856-2.506 6.697 6.697 0 0 0-7.199 1.005 6.878 6.878 0 0 0-1.016 1.095 6.793 6.793 0 0 0-1.325 3.521v.005a5.712 5.712 0 0 0-.017.306l-.002.236Z" fill="#599DAD"/><path d="M.258 111.372a6.7 6.7 0 0 0 7.575-.58 6.772 6.772 0 0 0 1.813-2.256 6.82 6.82 0 0 0 .712-2.813 6.711 6.711 0 0 0-7.744.723 6.878 6.878 0 0 0-1.016 1.095 6.787 6.787 0 0 0-1.326 3.521v.005c-.006.101-.012.204-.014.305Z" fill="#86D1CD"/><path d="M1.597 107.537c-.156 7.001 5.836 9.483 8.293 10.205a6.694 6.694 0 0 0 1.31-.83c-8.104-1.835-8.626-8.414-8.587-10.466a6.829 6.829 0 0 0-1.016 1.091Z" fill="#ED7D2B"/></svg>