<svg width="87" height="115" fill="none" xmlns="http://www.w3.org/2000/svg"><path d="M43.953 55.231s2.263.155 3.183.73c.92.575 1.76.797 1.592 1.061-.169.265-1.779-.299-1.812 0-.032.3 1.425 1.195 1.832 1.26.407.067 1.329.2 1.164.732-.164.53-1.725.696-2.97.73-1.244.032-4.274-1.992-4.274-1.992l1.285-2.52Z" fill="#FFB27D"/><path d="M42.305 58.084c-2.288 0-9.84-5.085-12.378-7.138a7.42 7.42 0 0 1-.628-.554c-.947-.971-4.21-5.765-6.526-10.033-1.334-2.46-2.354-4.744-2.434-6.024-.29-4.57 2.097-10.96 2.097-10.96 7.058 2.475 7.794 8.152 7.794 8.152l3.618 13.563a3.614 3.614 0 0 0 1.172 1.843l9.562 8.01c.33 1.373-1.512 3.142-2.277 3.14Z" fill="#F9DDBF"/><path d="M29.93 50.946a7.42 7.42 0 0 1-.629-.554c-.947-.971-4.21-5.765-6.526-10.033-.3-2.58-.094-5 .96-6.693.002 0 6.002 10.637 6.195 17.28Z" fill="#F2CCAA"/><path d="m25.863 93.218-1.2 5.04-.742 3.121-2.472 10.387s-2.117.658-4.316 0a38.136 38.136 0 0 1-.837-7.727c-.012-2.242.191-4.718.842-7.055.26-.95.604-1.872 1.03-2.758 3.488-7.175 7.695-1.008 7.695-1.008Z" fill="#FFB27D"/><path d="M27.91 114.799H16.294s-.184-1.774.328-3.465c.076-.254.168-.502.276-.743 0 0 2.593.591 4.83 0 0 0 2.103 1.804 3.374 2.357 1.27.554 2.675.258 2.808 1.851Z" fill="#2B478B"/><path d="m24.66 98.26-.742 3.12a17.848 17.848 0 0 1-7.624 2.661c-.013-2.243.19-4.719.842-7.056 1.067-.546 2.155-.831 3.081-.669 2.306.407 3.676 1.255 4.443 1.943Z" fill="#E8945B"/><path d="M21.877 114.799h-5.583s-.184-1.774.328-3.465c1.402.44 4.254 1.543 5.255 3.465Z" fill="#1F396D"/><path d="m16.602 93.218-1.2 5.04-.743 3.121-2.471 10.387s-2.116.658-4.315 0a38.131 38.131 0 0 1-.837-7.727c-.014-2.242.19-4.718.84-7.055.26-.95.606-1.872 1.032-2.758 3.486-7.175 7.694-1.008 7.694-1.008Z" fill="#FFB27D"/><path d="M7.64 110.589s2.594.595 4.83 0c0 0 2.103 1.806 3.374 2.359 1.27.554 2.675.253 2.808 1.852H7.036s-.241-2.337.605-4.211Z" fill="#2B478B"/><path d="m15.404 98.26-.743 3.12a17.842 17.842 0 0 1-7.623 2.661c-.014-2.243.19-4.719.84-7.056 1.07-.546 2.157-.831 3.082-.669 2.306.407 3.676 1.255 4.444 1.943Z" fill="#E8945B"/><path d="M27.537 98.972c-4.34 2.777-22.414.792-22.562-1.9 0 0 .895-6.73 1.199-9.55.126-1.171.185-2.107.112-2.598-1.886-12.54-3.459-27.298-3.269-30.12.028-.398.047-.603.047-.603s1.356-.115 3.42-.195c5.998-.24 17.977-.197 19.96 3.755 2.027 4.025 2.078 27.416 2.078 27.416 0 6.437-.985 13.795-.985 13.795Z" fill="#FF685B"/><path d="M6.175 87.526c.126-1.171.185-2.108.112-2.598-1.886-12.54-3.458-27.298-3.269-30.12.028-.398.047-.603.047-.603s1.356-.115 3.42-.195c3.103 1.84 5.122 4.978 5.122 4.978s-.623 23.457-5.432 28.538Z" fill="#CD584D"/><path d="M14.472 5.213c0-1.63.93-2.807 2.725-2.913 1.316-.084 3.135.72 3.135 2.35 0 1.631-1.311 3.521-2.93 3.521a2.91 2.91 0 0 1-2.074-.867 2.952 2.952 0 0 1-.856-2.09Z" fill="#BBD2EF"/><path d="M16.965 16.999s-7.04-6.392-1.624-11.303a4.07 4.07 0 0 1 1.854-.956c1.896-.417 6.11-1.002 8.24 1.37 2.294 2.554 3.202 4.498 1.289 6.827-1.914 2.328-9.759 4.062-9.759 4.062Z" fill="#D5E5FB"/><path d="M7.774 59.329c.198.883.26 1.79.186 2.692-.181 2.057-.554 3.184-1.878 3.853 0 0-1.529 1.054-1.76-.315-.232-1.37.23-1.418-.14-3.34-.37-1.921-.09-3.38 1.006-4.245l2.586 1.355ZM23.32 16.936s-.095 1.054-.273 2.476c-.085.696-.19 1.48-.315 2.273-.088.57-.187 1.14-.294 1.692l-2.4 8.167-5.635-9.19s1.324-1.103 3.12-7.085c.016-.065.028-.1.028-.1l5.77 1.767Z" fill="#FFB27D"/><path d="M26.603 57.217c.073.917-.157 1.085-.157 1.085s-3.465 1.266-12.18.827a228.79 228.79 0 0 1-2.66-.146c-5.615-.333-8.619-.681-8.619-.681s-4.6-10.698 4.042-23.878a42.176 42.176 0 0 1 3.465-4.56c1.399-1.61 1.708-3.761 2.238-5.806.152-.586-.287-.715-.068-1.267 0 0 1.576-.45 1.738-.45.896.796 2.076 2.34 5.006 2.646 1.982.208 2.757-.917 3.039-1.591.754.275 1.538.75 2.179 1.06 5.31 2.569 5.798 7.55 5.798 7.55s-4.88 16.167-5.183 18.186c-.135.907.984 2.303 1.362 7.025Z" fill="#F9DDBF"/><path d="M23.047 19.41a69.02 69.02 0 0 1-.316 2.272c-6.16-2.413-5.372-5.793-5.21-6.416.017-.065.03-.099.03-.099s3.156 2.259 5.496 4.243Z" fill="#E8945B"/><path d="M24.328 20.218s-6.892.223-6.964-4.103c-.072-4.326-1.006-7.213 3.387-7.537 4.392-.324 5.28 1.31 5.657 2.749.377 1.437-.29 8.721-2.08 8.89Z" fill="#FFB27D"/><path d="M24.928 7.93s-.433 8.243-8.834 7.473c0-.005.178-11.03 8.834-7.474Z" fill="#D5E5FB"/><path d="M23.32 8.647s2.49 1.532 3.269 3.987c-.004-.005 2.773-3.9-3.269-3.987Z" fill="#D5E5FB"/><path d="M11.609 58.99c-5.616-.333-8.62-.68-8.62-.68s-4.6-10.698 4.042-23.879c1.75 4.107 5.877 15.088 4.578 24.56Z" fill="#F2CCAA"/><path d="M14.404 22.352s-6.663 1.38-9.637 4.844C2.49 29.856 0 42.836 0 44.981c0 2.05 2.338 12.95 3.8 15.04a.48.48 0 0 0 .444.206l3.755-.4a.549.549 0 0 0 .475-.412.561.561 0 0 0 .013-.221l-2.11-13.779 7.405-13.233s4.367-5.22.621-9.83Z" fill="#F9DDBF"/><path d="M7.8 60.23s.988 2.864.724 3.128c-.264.265-.955-.895-.955-.895l.23-2.232Z" fill="#FFB27D"/><path d="M25.184 17.3s-.204.708-.533.774c-.33.066-.857.178-1.318 0a1.017 1.017 0 0 1-.592-.553 5.54 5.54 0 0 1 2.443-.22Z" fill="#fff"/><path d="m55.896 114.545-.189-56.09s-.425-4.042-3.922-4.064c-3.732-.023-3.97 4.016-3.97 4.016a.428.428 0 0 0 .434.352.449.449 0 0 0 .47-.346s.183-3.114 3.06-3.096c2.697.015 3.018 3.131 3.018 3.131l-.33 56.088 1.429.009Z" fill="#233862"/><path d="m53.992 114.534 2.322.014-.192-2.448s.021-.339-.448-.361c-.435-.02-1.296-.088-1.383.176-.069.233-.299 2.619-.299 2.619Z" fill="#233862"/><path d="m51.773 51.417-.164.8s-3.934-.038-4.88 4.206c0 0-.26 1.773 1.006 1.393 1.266-.38 1.076-1.274 2.871-1.757 1.795-.482 2.965-.856 3.244-2.168l.301-1.46-2.378-1.014Z" fill="#FFB27D"/><path d="M65.891 16.726s-1.064 4.121-1.985 7.89c-.377 1.52-.718 2.976-.963 4.087-.251 1.14-.392 1.913-.34 2 .774 1.281-.698 9.059-1.843 11.878-.1.254-.24.544-.406.87-1.597 3.105-5.832 9.197-5.832 9.197s-1.186.118-1.96-.181c-.644-.253-1.081-1.05-1.081-1.05.377-.607 1.94-7.794 3.92-11.816.847-1.722 2.173-17.734 3.806-19.874 1.368-1.79 6.684-3 6.684-3Z" fill="#FF685B"/><path d="M62.608 30.702c.773 1.282-.7 9.06-1.844 11.88-.101.253-.24.543-.407.868-1.468-6.727 1.087-16.228 1.087-16.228.622.254 1.117.773 1.508 1.486-.255 1.137-.397 1.908-.344 1.994Z" fill="#CD584D"/><path d="M73.073 108.47s.366 6.08-.775 6.163c-.152.01-5.783-.025-5.783-.025l-7.261-.043s.133-1.786 2.235-2.142c2.102-.356 5.627-1.822 6.915-4.613 1.359-2.938 4.669.66 4.669.66Z" fill="#0F2949"/><path d="M83.992 108.535s.364 6.08-.776 6.162c-.152.01-5.783-.023-5.783-.023l-7.261-.044s.133-1.786 2.236-2.142c2.104-.356 5.627-1.823 6.915-4.612 1.36-2.935 4.669.659 4.669.659Z" fill="#163560"/><path d="M73.502 93.813c.165 2.572.503 5.882.362 8.867-.206 4.167-.358 7.681-.358 7.681-2.733.918-7.73-.246-7.73-.246s-1.714-10.544-3.125-18.961c-.63-3.771-1.16-7.034-1.353-8.573-.629-4.98.88-31.421.88-31.421s7.408-4.721 10.443-2.246c3.035 2.475 4.895 4.887-.176 31.772-.38 2.034.692 7.364 1.057 13.127Z" fill="#746DAE"/><path d="M73.502 93.813c.165 2.572.47 6.69.322 9.67-2.55-2.75-7.572-8.553-11.173-12.334-.63-3.771-1.16-7.034-1.353-8.573-.629-4.98.88-31.421.88-31.421s7.408-4.722 10.443-2.246c3.035 2.475 4.895 4.887-.176 31.771-.38 2.04.692 7.37 1.057 13.133Z" fill="#423B7D"/><path d="M68.85 51.732s.503 26.482 1.508 31.397c1.006 4.915 6.278 27.42 6.278 27.42s5.065.495 7.72-.634c0 0-.108-10.408-.97-16.53-.806-5.716-2.28-10.949-2.051-13.012 3.006-27.197.964-29.458-2.25-31.691-3.213-2.233-10.235 3.05-10.235 3.05Z" fill="#746DAE"/><path d="M78.85 54.11s-1.776 3.539 1.583 6.271c0 0 1.457 1.014 1.688-.291.232-1.305-.028-.854.335-2.69.363-1.835-.077-3.739-1.12-4.572L78.85 54.11ZM64.309 10.717s1.982 3.242 1.561 6.135l2.98 7.17 5.317-8.233s-2.696-3.214-3.739-7.493l-6.12 2.421Z" fill="#FFB27D"/><path d="M63.406 13.36s7.376.366 7.536-4.097c.161-4.463 2.173-7.42-3.344-7.844-4.537-.35-6.057 1.548-6.469 3.024-.412 1.476-.456 8.66 2.277 8.917Z" fill="#FFB27D"/><path d="M81.233 53.082a214.103 214.103 0 0 1-8.06.551c-7.998.403-11.168-.92-11.168-.92s-.21-.174-.137-1.12c.377-4.87 1.41-6.302 1.292-7.23-.266-2.08-5.176-19.091-5.176-19.091s-.065-5.365 5.87-7.847c.66-.274 1.341-.497 2.035-.666.252.696.96 1.86 2.779 1.657 2.689-.3 4.612-1.885 5.438-2.7.149 0 .207.007.207.007.194.582.357 1.173.486 1.773.473 2.112.743 4.331 2.012 5.998a45.438 45.438 0 0 1 3.248 4.85 40.347 40.347 0 0 1 1.974 3.873c5.174 11.702 1.067 20.7-.8 20.865Z" fill="#FF685B"/><path d="M81.234 53.083c-1.587.139-3.772.31-6.418.462-.695-13.117 4.682-25.68 4.682-25.68.2.144.389.304.564.478.92.91 1.554 2.255 1.974 3.873 1.544 5.955.165 15.607-.802 20.867Z" fill="#CD584D"/><path d="M61.051 9.088s-1.47 5.733.963 6.556c2.433.824 8.907.214 8.946-6.825 0 0-3.408 2.02-5.028 1.96-1.62-.06-2.663-1.013-4.167-.284 0 .007-.549-.04-.714-1.407Z" fill="#D5E5FB"/><path d="M74.313 15.722s5.155.148 7.861 3.737c2.072 2.75 4.192 17.451 4.18 19.663-.013 2.212-2.436 14.403-3.761 15.721a4.91 4.91 0 0 1-1.994-.006 4.01 4.01 0 0 1-1.912-.95s.735-13.585.743-14.86c.01-1.845-5.649-13.174-5.649-13.174s-2.935-5.4.532-10.131Z" fill="#FF685B"/><path d="M70.63 2.825c-.125-.456-.676-.699-.676-.699-4.149-1.848-7.192.127-7.192.127 2.567-3.43 8.71-2.67 9.985.444 2.085 5.086-1.788 6.12-1.788 6.12s-3.853-1.658-1.603-3.694c.744-.675 1.106-1.277 1.228-1.801.038-.163.054-.33.046-.497Z" fill="#D5E5FB"/><path d="M62.256 11.42s.486.774 1.336.746a1.554 1.554 0 0 0 1.25-.746s-1.433-.277-2.586 0Z" fill="#fff"/></svg>