<svg width="28" height="28" fill="none" xmlns="http://www.w3.org/2000/svg"><path d="M8.665 22.06c.967 0 1.76.809 1.76 1.809 0 .988-.793 1.798-1.76 1.798-.98 0-1.772-.81-1.772-1.798 0-1 .792-1.81 1.772-1.81Zm13.114 0c.968 0 1.76.809 1.76 1.809 0 .988-.792 1.798-1.76 1.798-.979 0-1.771-.81-1.771-1.798 0-1 .792-1.81 1.771-1.81ZM3.242 2.333l.119.01 2.78.427a.892.892 0 0 1 .723.81l.221 2.667a.718.718 0 0 0 .711.667H23.54c.711 0 1.177.25 1.644.798.466.548.548 1.334.443 2.047l-1.108 7.81c-.21 1.501-1.469 2.607-2.95 2.607H8.852c-1.55 0-2.832-1.213-2.96-2.784L4.817 4.414l-1.76-.31a.895.895 0 0 1 .303-1.76l-.12-.01Zm16.463 8.986h-3.23a.875.875 0 0 0-.874.892c0 .489.385.893.874.893h3.23c.49 0 .874-.405.874-.893 0-.5-.385-.893-.874-.893Z" fill="#222"/></svg>