<svg width="24" height="24" fill="none" xmlns="http://www.w3.org/2000/svg"><path d="M20.055 4.5H3.945a1.945 1.945 0 0 0-1.06 3.575l7.371 4.791c.631.41.947.616 1.287.696.3.07.613.07.914 0 .34-.08.656-.285 1.287-.696l7.371-4.79a1.945 1.945 0 0 0-1.06-3.576Z" stroke="#FF685B" stroke-width="1.8"/><path d="M21.5 8v8.3c0 1.12 0 1.68-.218 2.108a2 2 0 0 1-.874.874c-.428.218-.988.218-2.108.218H5.7c-1.12 0-1.68 0-2.108-.218a2 2 0 0 1-.874-.874C2.5 17.98 2.5 17.42 2.5 16.3V8" stroke="#FF685B" stroke-width="1.8" stroke-linecap="round" stroke-linejoin="round"/></svg>