<svg width="24" height="24" fill="none" xmlns="http://www.w3.org/2000/svg"><path fill-rule="evenodd" clip-rule="evenodd" d="M6.6 6.5a5.4 5.4 0 1 1 10.8 0v2.107c.31.005.59.016.843.037.556.045 1.058.142 1.527.381a3.9 3.9 0 0 1 1.704 1.704c.24.47.336.972.382 1.527.044.537.044 1.198.044 2.006V16.738c0 .808 0 1.469-.044 2.006-.046.556-.143 1.058-.382 1.527a3.9 3.9 0 0 1-1.704 1.704c-.469.239-.97.336-1.527.381-.537.044-1.198.044-2.006.044H7.762c-.808 0-1.469 0-2.006-.044-.556-.045-1.058-.142-1.527-.381a3.9 3.9 0 0 1-1.704-1.704c-.24-.47-.336-.971-.382-1.527-.043-.537-.043-1.198-.043-2.006V14.262c0-.808 0-1.469.043-2.006.046-.556.143-1.058.382-1.527a3.9 3.9 0 0 1 1.704-1.704c.469-.239.971-.336 1.527-.381.253-.02.533-.032.844-.037V6.5Zm9 0v2.1H8.4V6.5a3.6 3.6 0 0 1 7.2 0Zm-9.697 3.938c-.445.036-.684.103-.857.191a2.1 2.1 0 0 0-.918.918c-.088.173-.154.411-.19.856-.038.455-.038 1.042-.038 1.897v2.4c0 .855 0 1.442.037 1.897.037.445.103.684.192.856a2.1 2.1 0 0 0 .917.918c.173.088.412.155.856.191.456.037 1.043.038 1.898.038h8.4c.855 0 1.442 0 1.897-.038.444-.036.683-.103.856-.19a2.1 2.1 0 0 0 .918-.919c.088-.172.154-.411.19-.856.038-.455.039-1.042.039-1.897v-2.4c0-.855-.001-1.442-.038-1.897-.037-.445-.103-.683-.191-.856a2.1 2.1 0 0 0-.918-.918c-.173-.088-.412-.155-.856-.191-.455-.037-1.043-.038-1.897-.038H7.8c-.855 0-1.442 0-1.897.038ZM13 16.233a2 2 0 0 0-1-3.733 2 2 0 0 0-1 3.733V18a1 1 0 1 0 2 0v-1.767Z" fill="#FF685B"/></svg>